<?xml version="1.0" encoding="utf-8"?>
<!-- Generator: Adobe Illustrator 16.0.3, SVG Export Plug-In . SVG Version: 6.00 Build 0)  -->
<!DOCTYPE svg PUBLIC "-//W3C//DTD SVG 1.1//EN" "http://www.w3.org/Graphics/SVG/1.1/DTD/svg11.dtd">
<svg version="1.1" id="Layer_1" xmlns="http://www.w3.org/2000/svg" xmlns:xlink="http://www.w3.org/1999/xlink" x="0px" y="0px"
	 width="426.667px" height="492px" viewBox="749.167 222.667 426.667 492" enable-background="new 749.167 222.667 426.667 492"
	 xml:space="preserve">
<g transform="matrix(1.0225,0,0,1.0225,789.5112,388.3238)">
	<g>
		<defs>
			<rect id="SVGID_1_" x="-14.624" y="16.66" width="383.436" height="129.858"/>
		</defs>
		<clipPath id="SVGID_2_">
			<use xlink:href="#SVGID_1_"  overflow="visible"/>
		</clipPath>
		<g clip-path="url(#SVGID_2_)" enable-background="new    ">
			<image overflow="visible" width="375" height="127" xlink:href="4A7FFA9C.jpg"  transform="matrix(1 0 0 1 -10.405 18.0895)">
			</image>
		</g>
	</g>
</g>
<g>
	<path fill="none" stroke="#37EAFF" stroke-linejoin="round" stroke-miterlimit="10" d="M830.507,458.456l13.293,3.067l12.27,4.09
		l10.225,2.045l10.226,2.045l11.247-1.022h5.112l34.765,6.136l19.428-1.022l13.292,1.022h9.202l8.181-1.022l8.18,2.045l13.293,3.067
		l9.202,1.022l10.225,1.022l12.271,4.09l31.697-6.135l15.338-3.067l13.292-1.022h14.314l5.112-2.045"/>
</g>
<g transform="matrix(1.025,0,0,1.025,1328.5125,388.1375)">
	<g>
		<defs>
			<rect id="SVGID_3_" x="-541.38" y="174.019" width="384.375" height="130.175"/>
		</defs>
		<clipPath id="SVGID_4_">
			<use xlink:href="#SVGID_3_"  overflow="visible"/>
		</clipPath>
		<g clip-path="url(#SVGID_4_)" enable-background="new    ">
			<image overflow="visible" width="375" height="127" xlink:href="4A7FFAA6.jpg"  transform="matrix(1 0 0 1 -536.6937 175.6071)">
			</image>
		</g>
	</g>
</g>
<g>
	<path fill="none" stroke="#37EAFF" stroke-linejoin="round" stroke-miterlimit="10" d="M837.34,620.921l1.024,1.025l1.025,1.024
		h1.025l1.024-1.024h1.025h1.024h1.025h1.025l1.024,1.024h1.025h1.024h1.025l1.025,1.025h1.024h1.025h1.024v1.025h1.025h1.025h1.024
		v1.024h1.025h1.024l1.025,1.025h1.025h1.024h1.025h1.024h1.025l1.025,1.024h1.024h1.025h1.024l1.025,1.025h1.025h1.024h1.025
		l1.024,1.025h1.025h1.025h1.024h1.025h1.024h1.025h1.025v-1.025h1.024h1.025h1.024l1.025,1.025h1.025h1.024v1.024h1.025h1.024
		h1.025h1.025h1.024h1.025l1.024,1.025h1.025l1.025,1.024v1.025l1.024,1.025v1.024h1.025v1.025h1.024h1.025v1.024h1.025h1.024h1.025
		v-1.024h1.024h1.025l1.025-1.025h1.024h1.025h1.024h1.025h1.025h1.024l1.025,1.025h1.024l1.025-1.025h1.025l1.024-1.024h1.025
		v-1.025h1.024h1.025h1.025h1.024h1.025h1.024v1.025h1.025l1.025,1.024l1.024,1.025h1.025h1.024h1.025h1.025l1.024-1.025h1.025
		v-1.024h1.024h1.025h1.025v-1.025h1.024h1.025h1.024h1.025h1.025h1.024h1.025h1.024h1.025h1.025h1.024h1.025h1.024h1.025h1.025
		h1.024l1.025,1.025h1.024h1.025h1.025h1.024h1.025h1.024h1.025h1.025h1.024h1.025h1.024h1.025h1.025h1.024h1.025l1.024-1.025h1.025
		h1.025h1.024h1.025h1.024h1.025h1.025h1.024l1.025,1.025h1.024h1.025h1.025l1.024,1.024h1.025h1.024h1.025l1.025,1.025h1.024
		l1.025,1.024l1.024,1.025l1.025,1.025h1.025l1.024,1.024h1.025h1.024l1.025-1.024h1.025h1.024v-1.025h1.025h1.024h1.025v1.025
		h1.025h1.024h1.025h1.024h1.025h1.025h1.024v1.024h1.025v1.025h1.024l1.025,1.024h1.025h1.024h1.025h1.024h1.025l1.025,1.025h1.024
		h1.025h1.024h1.025l1.025-1.025h1.024l1.025,1.025l1.024,1.025v1.024h1.025v1.025h1.025h1.024h1.025h1.024h1.025h1.025l1.024-1.025
		h1.025h1.024v-1.024h1.025v-1.025h1.025l1.024-1.025h1.025l1.024-1.024h1.025h1.025h1.024h1.025l1.024-1.025h1.025h1.025h1.024
		h1.025h1.024h1.025h1.025l1.024,1.025h1.025h1.024h1.025v-1.025h1.025h1.024h1.025h1.024h1.025h1.025h1.024h1.025v-1.024h1.024
		h1.025h1.025v-1.025h1.024v-1.025h1.025l1.024-1.024h1.025l1.025,1.024h1.024h1.025l1.024-1.024h1.025v-1.025h1.025h1.024h1.025
		v-1.024h1.024h1.025h1.025h1.024h1.025h1.024h1.025h1.025h1.024h1.025h1.024h1.025h1.025h1.024h1.025h1.024h1.025h1.025h1.024
		l1.025,1.024h1.024h1.025v1.025h1.025h1.024h1.025v-1.025h1.024h1.025h1.025l1.024-1.024h1.025h1.024l1.025-1.025h1.025h1.024
		h1.025h1.024h1.025h1.025h1.024"/>
</g>
<g transform="matrix(1.0225,0,0,1.0225,250.5112,388.3238)">
	<g>
		<defs>
			<rect id="SVGID_5_" x="512.515" y="-139.177" width="383.438" height="129.857"/>
		</defs>
		<clipPath id="SVGID_6_">
			<use xlink:href="#SVGID_5_"  overflow="visible"/>
		</clipPath>
		<g clip-path="url(#SVGID_6_)" enable-background="new    ">
			<image overflow="visible" width="375" height="127" xlink:href="4A7FFAA7.jpg"  transform="matrix(1 0 0 1 516.7324 -137.7484)">
			</image>
		</g>
	</g>
</g>
<text transform="matrix(1 0 0 1 757.833 247.4761)" font-family="'Myriad-Roman'" font-size="24">A</text>
<text transform="matrix(1 0 0 1 757.833 406.8193)" font-family="'Myriad-Roman'" font-size="24">B</text>
<text transform="matrix(1 0 0 1 757.833 568.1328)" font-family="'Myriad-Roman'" font-size="24">C</text>
</svg>
