<?xml version="1.0" encoding="utf-8"?>
<!-- Generator: Adobe Illustrator 16.0.5, SVG Export Plug-In . SVG Version: 6.00 Build 0)  -->
<!DOCTYPE svg PUBLIC "-//W3C//DTD SVG 1.1//EN" "http://www.w3.org/Graphics/SVG/1.1/DTD/svg11.dtd">
<svg version="1.1" id="Layer_1" xmlns="http://www.w3.org/2000/svg" xmlns:xlink="http://www.w3.org/1999/xlink" x="0px" y="0px"
	 width="1423.429px" height="770.962px" viewBox="200.628 82.111 1423.429 770.962"
	 enable-background="new 200.628 82.111 1423.429 770.962" xml:space="preserve">
<g transform="matrix(1.3588,0,0,1.3588,250,362.4103)">
	<g>
		<defs>
			<rect id="SVGID_1_" x="-55.471" y="-25.618" width="408.999" height="205.179"/>
		</defs>
		<clipPath id="SVGID_2_">
			<use xlink:href="#SVGID_1_"  overflow="visible"/>
		</clipPath>
		<g clip-path="url(#SVGID_2_)" enable-background="new    ">
			<image overflow="visible" width="301" height="151" xlink:href="E80CAECE.jpg"  transform="matrix(1 0 0 1 -1.4726 1.4717)">
			</image>
		</g>
	</g>
</g>
<g>
	<path fill="none" stroke="#000000" stroke-width="2" stroke-linejoin="round" stroke-miterlimit="10" d="M721,557.134l1.178-1.632
		l1.178-2.447l1.178-1.631l1.178-1.632l1.178-0.815h1.178l1.178,0.815l1.177,0.815l1.178,2.447l1.178,1.632l1.178,1.631l1.178-6.525
		l1.666-0.815l1.178-2.447l1.177-1.631l1.178-1.632l1.178-1.631l1.178-0.816l1.178-0.815h1.178l1.178,0.815l1.178,0.816l1.178,1.631
		l1.665,5.71l1.178,0.815l1.178-2.447l1.178,2.447l1.178-6.525l1.178-8.973l1.178-12.235l1.178-14.682l1.178-14.683l1.178-15.498
		l1.178-14.683l1.178-11.42l1.177-4.078l1.178,1.632l1.178,8.156l1.178,12.235l1.178,13.867l1.178,14.682l1.178,15.498l1.178,13.867
		l1.178,8.973l1.178,5.71l1.178,1.631l1.178,1.632l1.178-0.816l1.665,0.816l1.178-1.632l1.178-1.631h1.178h1.178l1.665,4.894
		l1.178,1.632l1.666,8.973l1.178,2.446l1.665-22.023l1.666,4.079l1.665,4.078l1.178,0.815h1.665l1.178,0.815l1.178-0.815
		l1.178-0.815l1.178-0.815l1.666-4.079h1.177h1.178l1.178,0.816l1.666-1.632h1.178l1.178,0.815h1.178l1.178-3.263l1.178-0.815
		l1.177,0.815l1.178,0.816l1.178-4.079h1.178l1.178,1.632l1.666-0.816l1.178,1.632l1.177,1.632l1.178,3.263l1.178,2.446l1.178,2.447
		l1.666-0.815l1.178,1.631h1.178h1.178l1.665-3.263l1.178-0.815l1.178,0.815h1.178h1.665h1.178h1.178h1.178h1.178h1.178h1.178h1.178
		h1.178l1.178-0.815l1.178-1.631h1.177l1.666-0.816l1.178-0.815l1.178-1.631l1.178,2.446l1.178-2.446l1.178-0.816h1.177l1.178,0.816
		l1.178,0.815l1.178,1.631l1.666-1.631h1.178l1.665-8.157l1.178-0.815l1.665-17.945l1.178-0.815l1.178-28.549l1.178-0.816
		l1.178-35.89l1.178-35.075h1.178l1.178-27.733l1.178-18.761l1.178-1.631h1.178h1.178h1.178h1.665l1.178,1.631l1.178,3.263
		l1.178,1.631l1.178,0.816h1.178l1.178,4.078l1.665,13.867l1.178,16.313l1.666,12.235l1.178,22.023l1.665,15.498l1.178,22.024
		l1.178-1.632l1.178,22.023l1.178,19.576l1.178,14.683l1.177,8.973l1.178,4.078l1.178,0.816l1.178-3.263h1.178l1.666-0.816
		l1.665,2.447l1.178,2.447l1.178,0.815l1.178,0.815h1.178l1.665-2.446h1.178h1.178l1.178,0.815l1.178,0.815l1.178,2.447l1.178,1.631
		h1.178l1.178,0.816l1.178-0.816h1.178h1.178h1.178h1.177l1.178-0.815l1.178-0.815l1.178-1.632l1.178-1.631l1.178-0.815l1.178,0.815
		l1.178,0.815l1.178,1.632l1.178,1.631l1.665-0.815l1.178-2.447l1.178-4.078l1.178-4.078l1.178-3.264l1.178-1.631l1.178-0.815
		l1.178,0.815l1.178,1.631l1.178,3.264l1.178,3.263l1.178,3.263l1.178,2.446l1.177,2.447l1.178,1.632l1.178,1.631l1.666-0.815
		l1.178-0.815l1.177-1.632l1.178-0.815l1.178-1.632l1.178-0.815l1.178-0.815l1.178-0.815l1.178-1.632l1.666-5.71l1.178-4.078
		l1.178-4.895l1.177-3.263l1.666-1.631l1.178,0.815l1.178,4.078l1.178,4.079l1.665,4.894l1.178,4.079l1.666,3.263l1.665,2.446h1.665
		l1.178-2.446h1.666l1.178-1.632l1.178-0.815l1.665-1.632h1.178l1.178,0.816h1.178l1.178-0.816l1.178-0.815l1.178-1.631l1.177,0.815
		l1.178-1.632l1.178-0.815l1.178-0.815l1.178-0.816l1.178-0.815l1.178-0.815h1.178l1.178-1.632h1.178h1.178l1.178,0.816l1.665,4.078
		l1.178,2.447l1.178,4.078l1.178,2.447l1.178,2.447h1.178l1.665-3.263l1.178-1.632l1.178-2.447l1.178-3.263l1.178-2.447l1.666,1.632
		l1.178,1.632l1.665,0.815l1.665,4.078l1.178,1.632l1.178,2.446l1.178,3.263h1.178h1.178l1.178-1.631l1.178-3.263l1.178-4.078
		l1.178-5.71l1.665-10.604l1.178-9.788l1.178-10.604l1.178-4.895l1.178-14.683h1.178l1.178-17.944l1.665-12.235l1.178-17.13
		l1.666-5.71l1.178-14.682l1.178-9.789l1.177-4.078l1.178,3.263l1.666,16.313l1.178,8.157l1.178,11.42l1.178,14.682l1.177,15.498
		l1.178,13.867l1.178,13.866l1.178,11.42l1.666,10.604l1.178,8.972l1.178,6.526l1.178,4.078l1.178-0.815l1.177,2.446l1.178,0.816
		l1.178,0.815l1.178,0.815h1.178l1.178,0.815h1.178l1.178,0.816l1.178-2.447h1.178h1.178l1.178,0.815l1.178-1.631l1.177-0.816h1.178
		l1.178-0.815l1.666,1.632l1.178-0.816l1.665,0.816l1.178,0.815h1.178l1.665-0.815l1.178-0.816l1.178,1.632h1.178l1.178,0.815
		l1.178,1.632l1.178,1.631l1.178,1.632l1.178,0.815"/>
	<path fill="none" stroke="#0000FF" stroke-width="2" stroke-linejoin="round" stroke-miterlimit="10" d="M721,553.871h1.178h1.178
		h1.178l1.178-0.816h1.178l1.178-1.631l1.178-0.816l1.177-0.815h1.178h1.178h1.178h1.178l1.666-0.815h1.178h1.177h1.178l1.178-1.632
		l1.178-0.815l1.178-1.631l1.178-0.467l1.178-0.466l1.178-0.466l1.178-0.233h1.665l1.178-0.096h1.178h1.178h1.178h1.178h1.178
		l1.178-0.096l1.178-0.042l1.178-0.055h1.178h1.178h1.177h1.178h1.178l1.178-0.096h1.178l1.178,0.096l1.178,0.097l1.178,0.096h1.178
		h1.178h1.178l1.178-0.096l1.178-0.097l1.665-0.096l1.178-0.096l1.178-0.096l1.178-0.097l1.178-0.096l1.665-0.096l1.178-0.097
		l1.666-0.096l1.178-0.096l1.665-0.096l1.666-0.097l1.665-0.096l1.178-0.096l1.665-0.096h1.178h1.178h1.178h1.178h1.666h1.177h1.178
		h1.178h1.666h1.178h1.178l1.178,1.631h1.178h1.178h1.177h1.178h1.178l1.178,0.815h1.178h1.666h1.178h1.177l1.178-0.815h1.178
		l1.178-1.631h1.666h1.178h1.178h1.178h1.665h1.178h1.178h1.178h1.665h1.178h1.178h1.178h1.178h1.178h1.178h1.178h1.178h1.178h1.178
		h1.177l1.666-0.816h1.178h1.178l1.178-0.815l1.178-0.494h1.178h1.177h1.178h1.178h1.178h1.666h1.178h1.665h1.178h1.665h1.178h1.178
		h1.178h1.178h1.178h1.178h1.178h1.178l1.178,0.024h1.178l1.178,0.024l1.178,0.025l1.665,0.024l1.178,0.024l1.178,0.025h1.178
		l1.178,0.024l1.178,0.024l1.178,0.025l1.665,0.024l1.178,0.024l1.666,0.025l1.178,0.024l1.665,0.024l1.178,0.024l1.178,0.025
		l1.178,0.024l1.178,0.024l1.178,0.025l1.177,0.024l1.178,0.815l1.178,0.816h1.178l1.178,1.631l1.666,0.815l1.665,0.816h1.178h1.178
		h1.178h1.178l1.665,0.815h1.178h1.178h1.178l1.178,0.815h1.178h1.178h1.178h1.178h1.178h1.178h1.178h1.178h1.177h1.178h1.178h1.178
		h1.178l1.178,0.815h1.178h1.178h1.178l1.178,0.816h1.665h1.178h1.178l1.178-0.816h1.178h1.178l1.178-0.815h1.178h1.178l1.178-0.815
		h1.178h1.178l1.178-0.815h1.177h1.178h1.178h1.666h1.178h1.177h1.178l1.178-1.632h1.178l1.178-0.163h1.178h1.178h1.666h1.178h1.178
		h1.177h1.666h1.178h1.178l1.178-0.163l1.665-0.163l1.178-0.163l1.666-0.163h1.665l1.665-0.163l1.178-0.163l1.666-0.163l1.178-0.163
		l1.178-0.163h1.665h1.178h1.178h1.178h1.178h1.178h1.178h1.177l1.178-0.816h1.178h1.178h1.178l1.178-0.815h1.178h1.178h1.178h1.178
		h1.178h1.178h1.665h1.178h1.178l1.178-0.815h1.178h1.178l1.665-0.815h1.178l1.178-0.816h1.178h1.178l1.666,0.126l1.178,0.251
		l1.665,0.251l1.665,0.188l1.178,0.063l1.178,0.251l1.178,0.251l1.178,0.251h1.178h1.178l1.178,0.251l1.178,0.251h1.178h1.665h1.178
		h1.178h1.178h1.178h1.178l1.178,0.251l1.665,0.251l1.178,0.251l1.666,0.251l1.178,0.251h1.178h1.177h1.178h1.666h1.178h1.178h1.178
		h1.177h1.178l1.178,0.251l1.178,0.251l1.666,0.188l1.178,0.063l1.178,0.251l1.178,0.251l1.178,0.251l1.177,0.815l1.178,0.815h1.178
		h1.178h1.178h1.178l1.178,0.816h1.178h1.178h1.178h1.178l1.178,0.815h1.178h1.177h1.178h1.178h1.666h1.178h1.665h1.178h1.178h1.665
		h1.178h1.178h1.178h1.178h1.178h1.178h1.178H1130"/>
</g>
<g>
	<path fill="none" stroke="#000000" stroke-width="2" stroke-linejoin="round" stroke-miterlimit="10" d="M1186,554.162l1.181-1.981
		l1.181-2.972l1.181-1.98l1.181-0.811l1.18-0.945l1.181,2.127l1.181,1.769l1.181,1.632l1.181,2.4l1.181,1.6l1.181,1.6l1.181-6.399
		h1.669l1.181-2.312l1.181-1.541l1.181-1.54l1.181,0.372l1.181,0.167l1.181,0.953l1.18,0.434l1.181,1.046l1.181,1.011l1.181,1.41
		l1.67,4.282l1.181,0.667l1.18-1.829l1.181,1.829l1.181-4.878l1.181-6.706l1.181-9.145l1.181-10.811l1.181-10.851l1.18-11.39
		l1.181-10.899l1.181-8.477l1.181-3.027l1.181,1.211l1.181,6.055l1.181,9.341l1.181,10.258l1.181,10.676l1.18,11.356l1.181,10.215
		l1.181,6.707l1.181,4.268l1.181,1.219l1.181,1.287l1.181-0.539l1.669,0.671l1.181-1.137l1.181-1.129l1.181,0.072l1.181,0.072
		l1.669,3.632l1.181,1.242l1.67,6.538l1.181,1.795l1.67-15.779l1.669,2.997l1.67,2.977l1.181,0.64l1.669,0.057l1.181,0.577
		l1.181-0.577l1.181-0.578l1.181-0.578l1.669-2.889h1.181h1.181l1.181,0.578l1.67-1.156h1.181l1.18,0.578l1.181-1.258l1.181-2.446
		l1.181-0.612l1.181,0.612l1.181,0.611l1.181-3.059l1.18-0.834l1.181,1.26l1.67-0.63l1.181,1.261l1.181,1.261l1.181,3.188
		l1.18,1.835l1.181,2.855l1.67-0.578l1.181,1.155h1.181h1.181l1.669-2.311l1.181-0.578l1.181,0.578h1.181h1.67h1.18h1.181h1.181
		h1.181h1.181h1.181h1.181h1.181l1.181-0.578l1.18-1.155h1.181h1.67l1.181-0.563l1.181-1.124l1.181,2.233l1.18-1.298l1.181-0.539
		h1.181l1.181,0.539l1.181,0.538l1.181,1.078l1.669-1.078h1.181l1.67-5.388l1.181-0.538l1.669-11.854l1.181-0.539l1.181-18.856
		l1.181-0.539l1.181-23.706l1.181-23.167h1.181l1.181-18.318l1.18-12.393l1.181-1.186h1.181l1.181-0.107l1.181-0.108l1.67-0.108
		l1.18,0.973l1.181,2.058l1.181,1.083l1.181,0.436l1.181-0.104l1.181,2.607l1.669,9.128l1.181,10.773l1.67,8.07l1.181,14.615
		l1.67,10.28l1.18,14.659l1.181-1.142l1.181,14.692l1.181,13.076l1.181,9.815l1.181,6l1.181,2.249l1.18,0.062l1.181-2.311
		l1.181-1.224l1.67-1.298l1.67,1.222l1.18,1.949l1.181,0.65l1.181,0.65h1.181l1.67-2.621h1.181h1.18l1.181,0.671h1.181l1.181,2.08
		l1.181,1.387h1.181l1.181,0.693l1.181-0.693h1.181h1.18h1.181h1.181l1.181-0.693l1.181-0.693l1.181-1.387l1.181-1.387l1.18-1.459
		l1.181,0.718l1.181,0.717l1.181,1.435l1.181,0.769l1.67-0.742l1.18-2.229l1.181-3.714l1.181-2.689l1.181-2.869l1.181-1.435
		l1.181,0.406l1.181,0.693l1.181,1.387l1.181,3.668l1.18,2.685l1.181,2.684l1.181,2.621l1.181,1.949l1.181,1.301l1.181,1.3
		l1.669-0.65l1.181-0.649l1.181-1.301l1.181-0.649l1.181-0.191l1.181-0.612l1.181-0.5l1.181-0.608l1.181-1.217l1.669-4.257
		l1.181-3.041l1.181-3.649l1.181-2.433l1.669-1.216l1.181,0.607l1.181,3.041l1.181,3.207l1.67,3.771l1.18,3.13l1.67,2.5l1.67,1.783
		l1.669,0.098l1.181-1.665l1.67,0.105l1.181-1.058l1.181-0.469l1.669-1.155h1.181l1.181,0.578h1.181l1.181-0.578l1.181-0.578
		l1.18-1.155l1.181,0.578l1.181-0.516l1.181-0.562l1.181-0.563l1.181-0.563l1.181,0.104l1.181-0.547h1.181l1.18-1.095h1.181h1.181
		l1.181,0.547l1.67,2.737l1.181,1.642l1.18,2.737l1.181,2.077l1.181,1.6h1.181l1.67-1.706l1.181-1.04l1.18-1.091l1.181-2.029
		l1.181-1.522l1.67,0.935l1.181,0.864l1.669,0.359l1.67,2.484l1.181,1.008l1.181,1.445l1.181,1.998l1.181-0.104h1.18l1.181-1.067
		l1.181-2.265l1.181-2.843l1.181-3.793l1.67-7.045l1.18-6.502l1.181-7.045l1.181-3.251l1.181-9.754h1.181l1.181-12.478l1.669-8.826
		l1.181-12.303l1.67-4.668l1.181-10.956l1.181-6.774l1.181-2.822l1.18,2.258l1.67,11.291l1.181,5.645l1.181,7.903l1.181,10.161
		l1.181,10.726l1.18,9.597l1.181,9.188l1.181,7.622l1.67,7.246l1.181,6.296l1.181,4.433l1.18,2.741l1.181-0.775l1.181,1.206
		l1.181,0.019l1.181,0.631l1.181,0.63h1.181l1.181,0.63l1.181-0.57l1.18,0.649l1.181-1.95h1.181h1.181l1.181,0.021l1.181-1.342
		l1.181-0.671h1.181l1.181-0.671l1.669,1.342l1.181-0.671l1.67,0.671l1.18,0.671h1.181l1.67-0.671l1.181-0.671l1.181,1.342h1.181
		l1.18,0.671l1.181,1.342l1.181,1.342l1.181,1.342l1.181,0.671"/>
</g>
<g transform="matrix(1.3588,0,0,1.3588,250,650.4103)">
	<g>
		<defs>
			<rect id="SVGID_3_" x="-55.471" y="-62.415" width="408.999" height="205.179"/>
		</defs>
		<clipPath id="SVGID_4_">
			<use xlink:href="#SVGID_3_"  overflow="visible"/>
		</clipPath>
		<g clip-path="url(#SVGID_4_)" enable-background="new    ">
			<image overflow="visible" width="301" height="151" xlink:href="E80CAED2.jpg"  transform="matrix(1 0 0 1 -1.4726 -35.3254)">
			</image>
		</g>
	</g>
</g>
<g>
	<path fill="none" stroke="#000000" stroke-width="2" stroke-linejoin="round" stroke-miterlimit="10" d="M721,795.134l1.697-0.816
		l1.201-0.815l1.2-0.815h1.2l1.697,1.631l1.698,2.447h1.2l1.201-3.263l1.2-1.631l1.2-2.447l1.2-3.263l1.2-1.632h1.201l1.2-1.631
		l1.2-0.816h1.2l1.201-0.815l1.2-0.815l1.2-1.632l1.2-1.631l1.201-1.632h1.2l1.2,1.632l1.2,0.815l1.201,3.263l1.2-3.263l1.2-7.341
		l1.2-13.052l1.201,7.342l1.2-18.761l1.2-22.023l1.697-28.55l1.201-23.654l1.2-18.761l1.2-10.604l1.2,5.71l1.201-4.894l1.2,3.263
		l1.2,9.788l1.2,13.051l1.201,2.447l1.2,15.498l1.2,16.313l1.2,16.313l1.201,13.867l1.2,11.42l1.2,8.972l1.2,6.526l1.698,5.709
		l1.2,1.632h1.2l1.2-0.815l1.201,0.815l1.2,2.447l1.2,4.078l1.698,3.263l1.2,1.632l1.2,0.815l1.2,2.447h1.201l1.2-0.816h1.2h1.2
		l1.2,0.816l1.201,0.815l1.2,2.447l1.2,1.631l1.201,1.632l1.2,1.631l1.2,0.816l1.697-1.632l1.201-0.815h1.2h1.2l1.698-2.447
		l1.2-0.815l1.2-1.632l1.697-4.894l1.201-1.632l1.2-0.815l1.2-0.815l1.2,0.815l1.201,0.815h1.2l1.2,0.815h1.2h1.201h1.2l1.2-0.815
		h1.2l1.698,1.632l1.2,0.815h1.697l1.201,0.815l1.2-0.815l1.2-0.815l1.2-0.816h1.201l1.2,0.816l1.2,0.815l1.697,0.815l1.201-0.815
		l1.2-0.815l1.2-0.816l1.2-1.631h1.201h1.2l1.2,2.447l1.2,1.631l1.201,1.632h1.2l1.2,0.815l1.698-0.815l1.2-1.632l1.2-4.078
		l1.697-13.867l1.698-27.733l1.697-34.259l1.698-35.89l1.2-29.365l1.2-1.631l1.2-22.023l1.201-11.42l1.2,5.71l1.2-5.71h1.698h1.2
		h1.697h1.2h1.201h1.2h1.2h1.2h1.201h1.2h1.2l1.2,1.631l1.201,2.447l1.2,7.342l1.2,15.498l1.2,22.839l1.698,29.364l1.2,27.733
		l1.2,22.84l1.201,16.313l1.2,7.341l1.2,3.263l1.2,3.264l1.2,4.078l1.201,4.078l1.2,3.263l1.2,2.447l1.698,0.815l1.2-0.815
		l1.2-0.815h1.2l1.201-3.263l1.2-4.079l1.2-3.263h1.697l1.201-1.631l1.2-2.447l1.2-2.447l1.2-1.631h1.201l1.2,0.815l1.2,2.447
		l1.2,4.078l1.201,4.078l1.2,4.895l1.697,3.263l1.201,4.078l1.2,3.263l1.2,2.447l1.2,1.632l1.201,1.631l1.2-0.815l1.2-2.447
		l1.2-4.078l1.201-3.263l1.2-0.815h1.2l1.697,0.815h1.201l1.2-2.447l1.2-4.895l1.2-7.341l1.201-6.525l1.2-2.447h1.2l1.697,3.263
		l1.201,5.71l1.2,4.895l1.2,4.894l1.201,5.71l1.697,3.263l1.2,2.447l1.2,0.815l1.201,0.815l1.2-0.815l1.2-0.815h1.2l1.698-0.815
		l1.697,0.815h1.2l1.698,0.815l1.2,0.815l1.2-0.815l1.201,1.632l1.697,0.815l1.2-18.761l1.2-0.815l1.698,2.446l1.2,1.632l1.2,0.815
		l1.201,1.632l1.2,1.631l1.2,1.632l1.2,2.447h1.698l1.697,2.446h1.2l1.201,0.816h1.2l1.2,0.815h1.2l1.201,0.815h1.697h1.2
		l1.201-0.815l1.2-0.815h1.2h1.2h1.2l1.201-0.816l1.2-0.815l1.2-1.631l1.2-1.632h1.201l1.2,0.815l1.2,3.263l1.2,3.263l1.201-12.235
		l1.697-2.446l1.2-2.447h1.2l1.201,1.631l1.2,3.263l1.2,3.264l1.201,3.263l1.697,2.446h1.2l1.698,2.447l1.2-2.447l1.2-3.263
		l1.697-10.604l1.201-7.341l1.2-8.157l1.2-4.078l1.2-8.973l1.201-9.788l1.697-11.42l1.2-10.604l1.698-8.156l1.697-5.71l1.2-13.051
		l1.201-10.604l1.2-6.525l1.2-3.263h1.2l1.201,1.632l1.697,0.815l1.2,7.341l1.201,9.788l1.697,14.683l1.2,13.867l1.2,14.683
		l1.201,16.313l1.2,13.866l1.2,10.604l1.2,8.156l1.201,5.71l1.2,3.263l1.697,2.447l1.201,0.815l1.2,1.632l1.2,1.631l1.697,2.447
		l1.201,0.815h1.697l1.697,0.816l1.201-0.816l1.2,0.816l1.2-1.632l1.201-0.815l1.697-1.632l1.2-0.815h1.2l1.201-1.632l1.2,0.816
		l1.2,0.815l1.697-2.447h1.201h1.2l1.2-0.815h1.2l1.201,0.815l1.2,1.632l1.2,2.446l1.2,0.816l1.201,0.815l1.2-0.815l1.2-1.632
		l1.2-1.631l1.201-0.816h1.2l1.697,0.816l1.201,1.631l1.2,1.632l1.2,1.631"/>
	<path fill="none" stroke="#0000FF" stroke-width="2" stroke-linejoin="round" stroke-miterlimit="10" d="M721,796.765h1.697
		l1.201-1.631l1.2-0.816h1.2l1.697-0.815h1.698l1.2-0.815h1.201l1.2-0.815l1.2-2.447l1.2-3.263l1.2-1.632h1.201l1.2-1.631l1.2-0.816
		h1.2l1.201-0.815h1.2l1.2-0.815l1.2-1.632l1.201-0.163l1.2-0.163l1.2-0.163l1.2-0.163l1.201-0.163h1.2l1.2-0.112l1.2-0.112
		l1.201-0.113l1.2-0.112l1.2-0.112l1.697-0.112l1.201-0.112l1.2-0.113l1.2-0.112h1.2h1.201h1.2h1.2h1.2h1.201h1.2h1.2h1.2h1.201h1.2
		h1.2h1.2h1.698h1.2h1.2h1.2h1.201h1.2h1.2l1.698,1.013l1.2,1.632h1.2h1.2h1.201h1.2h1.2h1.2h1.2h1.201h1.2h1.2h1.201h1.2h1.2h1.697
		l1.201,0.815h1.2h1.2h1.698h1.2h1.2h1.697h1.201h1.2h1.2h1.2h1.201h1.2l1.2-0.815h1.2h1.201h1.2h1.2h1.2h1.698h1.2h1.697h1.201h1.2
		h1.2l1.2-0.816h1.201h1.2h1.2h1.697h1.201h1.2h1.2h1.2h1.201h1.2h1.2h1.2h1.201h1.2l1.2-1.631h1.698h1.2h1.2l1.697-0.494
		l1.698-0.495l1.697-0.494l1.698-0.494l1.2-0.494l1.2-0.495l1.2-0.494l1.201-0.494l1.2-0.494l1.2-0.494l1.698-0.495l1.2-0.494
		l1.697-0.494l1.2-0.494l1.201-0.495h1.2h1.2h1.2h1.201h1.2h1.2h1.2l1.201-0.494l1.2-0.247l1.2-0.247l1.2-0.494l1.698-0.494
		l1.2-0.495l1.2-0.494l1.201-0.223l1.2-0.271l1.2-0.494l1.2-0.494h1.2h1.201h1.2h1.2h1.698h1.2h1.2h1.2h1.201h1.2h1.2l1.697,1.26
		h1.201l1.2,2.447l1.2,1.632l1.2,0.815l1.201,0.815h1.2h1.2h1.2h1.201h1.2h1.697l1.201-0.611h1.2h1.2h1.2h1.201h1.2l1.2,0.306
		l1.2,0.306l1.201,2.447h1.2l1.2,1.632h1.697l1.201,0.815h1.2h1.2l1.2,0.815l1.201,0.815l1.2,1.632l1.2,0.815l1.697,0.815
		l1.201,0.544h1.2h1.2l1.201-1.359l1.697-0.815h1.2l1.2-2.176h1.201h1.2l1.2,1.36h1.2l1.698,0.815l1.697,0.815l1.2,0.815h1.698
		l1.2,0.544l1.2,0.272h1.201h1.697h1.2h1.2h1.698h1.2h1.2h1.201h1.2h1.2h1.2h1.698h1.697h1.2h1.201h1.2h1.2l1.2-0.117l1.201-0.155
		l1.697-0.544h1.2h1.201h1.2h1.2h1.2h1.2h1.201h1.2h1.2h1.2h1.201h1.2h1.2h1.2h1.201l1.697-0.582l1.2-0.233l1.2-1.049l1.201-0.35
		h1.2h1.2h1.201h1.697h1.2h1.698h1.2h1.2h1.697h1.201l1.2,0.088l1.2,0.087l1.2,0.088l1.201,0.087h1.697h1.2h1.698h1.697h1.2h1.201
		l1.2,0.088l1.2,0.087l1.2,0.088l1.201,0.087h1.697h1.2h1.201h1.697l1.2,0.088l1.2,0.087l1.201,0.088l1.2,0.087l1.2,0.088l1.2,0.087
		l1.201,0.088l1.2,0.087l1.697,2.447h1.201h1.2l1.2,0.815h1.697h1.201h1.697h1.697l1.201,0.815l1.2,0.816h1.2h1.201h1.697h1.2h1.2
		h1.201l1.2,0.815h1.2h1.697l1.201,0.815h1.2h1.2h1.2l1.201,0.815l1.2,0.816h1.2h1.2h1.201l1.2-0.816h1.2l1.2-0.815h1.201h1.2
		l1.697-0.815l1.201,0.815h1.2l1.2,0.815"/>
</g>
<g>
	<path fill="none" stroke="#000000" stroke-width="2" stroke-linejoin="round" stroke-miterlimit="10" d="M1186,785.427l1.702-1.387
		l1.203,1.713l1.203,0.136h1.203l1.702,3.406l1.702,3.284l1.203,0.821l1.203-4.16l1.204-1.04h1.203h1.203h1.203h1.203h1.204h1.203
		h1.203h1.204l1.203-0.612l1.203-0.576l1.203,0.064l1.203-1.001l1.204,0.123l1.203,1.228l1.203,0.664l1.203,2.3l1.204-2.189
		l1.203-4.833l1.203-8.603l1.203,4.996l1.204-12.305l1.203-14.368l1.702-18.551l1.203-15.217l1.203-11.918l1.203-6.533l1.204,3.711
		l1.203-3.181l1.203,2.12l1.203,6.36l1.204,8.481l1.203,1.59l1.203,10.071l1.203,10.601l1.203,10.602l1.204,9.011l1.203,7.421
		l1.203,5.83l1.204,4.24l1.701,3.711l1.203,1.06h1.204l1.203-0.53l1.203,0.53l1.204,1.591l1.203,2.65l1.701,1.462h1.204l1.203,0.577
		l1.203,1.733h1.203l1.204-0.577h1.203h1.203l1.203,0.577l1.204,0.578l1.203,1.733l1.203,1.155l1.203,1.156l1.204,1.155l1.203,0.577
		l1.701-1.155l1.204-0.974h1.203h1.203l1.702-1.783l1.203-0.594l1.203-1.188l1.702-3.566l1.203-1.188l1.204-0.594l1.203-0.595
		l1.203,0.595l1.203,0.594h1.203l1.204,1.205h1.203h1.203h1.204l1.203-0.578h1.203l1.702,1.156l1.203,0.577h1.702l1.203,0.578
		l1.203-0.578l1.203-0.577h1.204h1.203l1.203,0.562l1.203,0.563l1.702,0.563l1.203-0.563l1.203-0.563l1.204-0.562l1.203-1.124h1.203
		h1.204l1.203,1.686l1.203,1.125l1.203,1.124h1.203l1.204,1.456l1.701-0.533l1.204-1.067l1.203-2.666l1.701-8.61l1.702-17.143
		l1.702-20.712l1.701-21.108l1.204-16.542l1.203,0.516l1.203-11.523l1.204-5.039l1.203,4.925l1.203-1.671l1.702,1.562l1.203,1.521
		l1.702,1.482l1.203,1.443l1.203,1.408h1.203h1.204h1.203h1.203h1.203h1.204l1.203,0.865l1.203,2.643l1.203,4.481l1.203,8.645
		l1.204,12.807l1.702,15.793l1.203,14.605l1.203,11.85l1.203,8.202l1.203,3.771l1.204,1.876l1.203,1.834l1.203,1.942l1.204,1.942
		l1.203,1.554l1.203,1.165l1.702,0.389l1.203-0.389l1.203-0.388h1.203l1.204-1.555l1.203-1.941l1.203-1.555l1.702-0.646l1.203-0.8
		l1.203-2.693l1.204-2.43l1.203-1.521l1.203-0.663l1.203,0.463l1.203,1.386l1.204,2.312l1.203,2.312l1.203,2.773l1.702,1.849
		l1.203,2.591l1.203,1.819l1.204,1.363l1.203,0.909l1.203,0.91l1.203-0.455l1.204-1.477l1.203-2.426l1.203-3.137l1.203-0.495
		l1.204-0.99l1.701,0.52l1.204-0.52l1.203-1.601l1.203-3.199l1.203-5.601l1.203-5.341l1.204-3.87l1.203-1.188l1.702,1.26
		l1.203,3.672l1.203,3.859l1.203,3.86l1.204,5.701l1.701,3.041l1.204,1.783l1.203,1.856l1.203,0.552l1.203-0.552l1.204-1.345h1.203
		l1.702-1.106l1.701,0.053l1.203-0.574l1.702,0.63l1.203,0.254l1.204-0.845l1.203,1.3l1.701,0.65l1.204-14.95l1.203-0.65l1.702,1.95
		l1.203,1.3l1.203,0.65l1.203,1.3l1.204,1.3l1.203,1.301l1.203,1.949h1.702l1.701,1.95h1.204l1.203,0.65h1.203l1.203,0.649
		l1.204,0.09l1.203,0.762l1.702,0.39h1.203l1.203-0.63l1.203-0.631h1.204h1.203h1.203l1.203-0.63l1.203-0.631l1.204-1.261
		l1.203-1.26h1.203l1.204,0.63l1.203,2.521l1.203,2.521l1.203-9.454l1.702-1.263l1.203-1.592l1.204,1.114l1.203,1.519l1.203,2.329
		l1.203,2.33l1.203,2.329l1.702,1.748h1.203l1.702,1.747l1.203-1.747l1.203-2.33l1.702-7.571l1.203-5.241l1.204-5.945l1.203-3.051
		l1.203-6.596l1.203-7.226l1.702-8.253l1.203-7.663l1.702-5.895l1.702-4.127l1.203-9.432l1.203-7.663l1.203-5.035l1.204-2.693
		l1.203-0.331l1.203,0.86l1.702,0.597l1.203,5.371l1.203,7.16l1.702,10.741l1.203,9.918l1.203,10.58l1.204,11.85l1.203,10.111
		l1.203,7.75l1.204,5.975l1.203,4.184l1.203,2.374h1.702l1.203,0.671l1.203,1.342l1.203,0.761l1.702,2.08l1.203,0.692h1.702
		l1.702,0.694l1.203-1.22l1.203,0.18l1.203-1.486l1.204-0.742l1.701-1.486l1.204-0.742h1.203l1.203-1.486l1.203-0.027l1.203,0.771
		l1.702-2.312l1.203-0.889h1.204l1.203-0.8h1.203l1.203-0.16l1.204,0.693l1.203,2.6l1.203,0.867l1.203,0.866l1.204-0.034
		l1.203-1.664l1.203-0.769l1.203-0.8h1.204l1.701,1.63l1.204,0.771l1.203,1.6l1.203,0.896"/>
</g>
<g transform="matrix(1.3588,0,0,1.3588,250,73.4103)">
	<g>
		<defs>
			<rect id="SVGID_5_" x="-55.471" y="11.18" width="408.999" height="205.179"/>
		</defs>
		<clipPath id="SVGID_6_">
			<use xlink:href="#SVGID_5_"  overflow="visible"/>
		</clipPath>
		<g clip-path="url(#SVGID_6_)" enable-background="new    ">
			<image overflow="visible" width="301" height="151" xlink:href="E80CAED5.jpg"  transform="matrix(1 0 0 1 -1.4726 38.2689)">
			</image>
		</g>
	</g>
</g>
<g>
	<path fill="none" stroke="#000000" stroke-width="2" stroke-linejoin="round" stroke-miterlimit="10" d="M721,307.529h1.205
		l1.205,0.816h1.206h1.704h1.205l1.206-0.816l1.205-0.815l1.205-1.631l1.205-0.816l1.205-1.631l1.206-1.631l1.205-0.815l1.205-0.816
		h1.205h1.205l1.206-0.816h1.205h1.205l1.205,0.816l1.705,4.894l1.205,0.816l1.704-2.447l1.206-2.447l1.205-4.079h1.205l1.205-6.525
		l1.206-6.526l1.205-7.341l1.205,2.447l1.205-10.604l1.205-10.604l1.206-11.42l1.704-10.604l1.205-11.419l1.205-7.341l1.206-4.078
		l1.205,0.815l1.205,4.079l1.205,8.157l1.206,10.604l1.205,14.683l1.205,15.498l1.704,8.157l1.206,8.972l1.704,1.632h1.704
		l1.705,1.631l1.205-1.631h1.205l1.206,4.078h1.205l1.205,1.631l1.205,2.447l1.705,7.341l1.205,4.078l1.205,3.263l1.205,3.263
		l1.705,2.447l1.205,2.447l1.205,0.815l1.205,0.816l1.705-1.631l1.205-0.816l1.205-0.816h1.205h1.206l1.704-0.815h1.205l1.206-0.816
		h1.205l1.704-2.447l1.205-1.631l1.206-0.816l1.205-0.815l1.205-2.447l1.205-0.815h1.206l1.205,0.815l1.704-3.263h1.205h1.205
		l1.206-0.815h1.205l1.205,0.815l1.705,2.447l1.205,0.815l1.205,1.631l1.705,2.447h1.205h1.205l1.704-2.447l1.705-1.631l1.205-3.263
		l1.205-5.71l1.205-8.157l1.206-11.419l1.205-9.789l1.205-5.709l1.205-1.631l1.206,3.263l1.205,6.525l1.704,8.157l1.205,5.71
		l1.206,5.71l1.205,3.263l1.205,2.447l1.205,2.447l1.205,1.631l1.206,1.631l1.205,0.816l1.205,0.815l1.205,0.815l1.206,0.816
		l1.205-1.631l1.205-2.447l1.704-4.894l1.206-6.525l1.704-12.235l1.205-13.867l1.206-16.313l1.205-17.129l1.704-39.969l1.205-19.577
		l1.206-17.129l1.704-26.102l1.704-0.815h1.206h1.205h1.704h1.206l1.205,3.263l1.704,4.894l1.205,4.079l1.206,5.71l1.205,8.972
		l1.205,10.604l1.705,18.761l1.205,17.129l1.205,19.577l1.205,20.392l1.705,25.286l1.205,15.498l1.205,13.051l1.705,7.341
		l1.704,6.526l1.205,4.078l1.205,0.816l1.705,0.815l1.205-0.815h1.205h1.205h1.206l1.704-1.631l1.205-0.816l1.206-1.631l1.205-0.815
		l1.704-0.816h1.205l1.206-0.815l1.205,0.815l1.205,2.447l1.205,0.815l1.206,0.816l1.205,0.815l1.205-0.815l1.205,0.815h1.205
		l1.705,0.816l1.205-0.816l1.205-0.815l1.205-1.631l1.206-0.816l1.205-0.815l1.205-0.816l1.704-0.815l1.206-11.42l1.205-2.447
		l1.205-1.631h1.205l1.206,0.815l1.205,1.631h1.704l1.705,4.894l1.205-0.815l1.205-2.447l1.705-13.867l1.205-4.894l1.205-4.078
		l1.205-3.263h1.205l1.206,2.447l1.205,4.079l1.205,4.894l1.205,4.894l1.205,2.447l1.206,0.815h1.205l1.704,1.631l1.206,0.816
		l1.205,1.631l1.704,0.815l1.205,1.631l1.705,4.079h1.205l1.205-1.631l1.205-1.631l1.206-1.631l1.205-0.816l1.205-0.815l1.205-2.447
		l1.206-0.815l1.205-0.816l1.205-1.631h1.705l1.205-0.816l1.704,0.816l1.205-1.631l1.206-1.631l1.704-0.816h1.205l1.206,0.816
		l1.205,1.631l1.205,2.447l1.704-4.895l1.206-0.815h1.205l1.205,0.815l1.205,2.447l1.205,3.263l1.206,3.263l1.205,2.447l1.704,2.447
		h1.205l1.206-0.815l1.704-3.263h1.205l1.705-0.816l1.205-1.631l1.205-2.447l1.705-1.632l1.205-1.631l1.205-0.815l1.705-1.631
		l1.704,2.447l1.704,4.079h1.206h1.205l1.205,0.816l1.205,1.631l1.206,2.447l1.704-0.815l1.205,0.815l1.205,1.631l1.206,1.631
		l1.704,3.263l1.205,4.078l1.206,4.079l1.205,1.631l1.205,0.815l1.205-1.631l1.205-4.894l1.705-7.341l1.205-11.419l1.205-13.867
		l1.205-13.051l1.206-13.867l1.205-15.498l1.205-13.867l1.704-17.945l1.206-11.419l1.205,0.815l1.205-13.867l1.705-9.788
		l1.205-9.788l1.704,0.815l1.205-3.263l1.705,14.683l1.205,4.078l1.205,7.341l1.205,16.314l1.206,6.525l1.205,8.157l1.205,10.604
		l1.705,5.71l1.205,13.051l1.205,13.051l1.205,12.235l1.206,9.789l1.704,8.972l1.205,6.526l1.205,4.894l1.705,6.525l1.205,3.263
		l1.704,4.894l1.206,0.816l1.704,3.263l1.205-0.816h1.205l1.705,3.263l1.205-0.815l1.205,0.815h1.206l1.205,0.816l1.205-0.816
		l1.205-0.815h1.206l1.704,0.815h1.205l1.205,0.816h1.206l1.205,0.815l1.205-0.815"/>
	<path fill="none" stroke="#0000FF" stroke-width="2" stroke-linejoin="round" stroke-miterlimit="10" d="M721,304.267h1.205
		l1.205-0.815h1.206l1.704-0.816h1.205h1.206h1.205h1.205h1.205h1.205h1.206h1.205h1.205l1.205-1.631l1.205-0.815h1.206h1.205h1.205
		h1.205h1.705h1.205h1.704h1.206h1.205h1.205h1.205h1.206h1.205h1.205h1.205h1.205h1.206h1.704h1.205h1.205h1.206h1.205h1.205h1.205
		h1.206h1.205h1.205h1.704h1.206h1.704h1.704h1.705h1.205h1.205h1.206h1.205h1.205h1.205h1.705l1.205,4.078h1.205h1.205h1.705h1.205
		h1.205h1.205h1.705h1.205h1.205h1.205h1.206h1.704l1.205,1.631l1.206,0.816l1.205,0.815h1.704h1.205h1.206h1.205h1.205h1.205
		l1.206-0.815l1.205-0.816h1.704l1.205-1.631h1.205h1.206h1.205l1.205-0.815h1.705h1.205l1.205-2.447h1.705h1.205h1.205h1.704h1.705
		h1.205h1.205h1.205l1.206-0.815h1.205h1.205l1.205-0.816l1.206-0.816l1.205-0.262l1.704-0.263l1.205-0.262l1.206-0.029l1.205-0.233
		l1.205-0.262l1.205-0.262l1.205-0.262l1.206-0.262l1.205-0.262l1.205-0.087l1.205-0.063l1.206-0.063l1.205-0.049h1.205h1.704h1.206
		h1.704h1.205h1.206h1.205h1.704h1.205l1.206,0.049l1.704,0.063l1.704,0.063l1.206,0.087l1.205,0.262h1.704h1.206h1.205h1.704h1.205
		h1.206h1.205h1.205h1.705h1.205h1.205h1.205h1.705h1.205h1.205l1.705,2.097l1.704,4.895l1.205,0.815h1.205h1.705l1.205,0.816h1.205
		l1.205,0.815h1.206h1.704h1.205h1.206h1.205h1.704h1.205h1.206h1.205h1.205h1.205h1.206h1.205h1.205h1.205h1.205l1.705-0.815h1.205
		l1.205-0.816h1.205h1.206h1.205l1.205-0.815h1.704l1.206-8.157l1.205-0.815l1.205-2.447h1.205l1.206-1.087l1.205-0.544h1.704h1.705
		h1.205h1.205h1.705h1.205h1.205h1.205h1.205l1.206-0.543l1.205-0.272h1.205h1.205l1.205-0.816h1.206l1.205-0.815h1.704h1.206
		l1.205-0.272l1.704-0.544h1.205l1.705-0.543l1.205-0.272l1.205-0.816h1.205h1.206h1.205h1.205h1.205h1.206h1.205h1.205h1.705h1.205
		l1.704,0.816l1.205,0.815h1.206h1.704l1.205-0.815l1.206-0.816h1.205l1.205-0.815h1.704h1.206h1.205h1.205h1.205h1.205h1.206h1.205
		h1.704h1.205h1.206l1.704,0.815h1.205h1.705h1.205l1.205,0.816l1.705,0.815l1.205,0.816l1.205,0.815h1.705h1.704h1.704h1.206h1.205
		h1.205h1.205h1.206l1.704-0.815l1.205-0.571h1.205h1.206h1.704h1.205h1.206h1.205l1.205,0.571h1.205l1.205,0.571l1.705,0.571
		l1.205,0.49l1.205,0.082l1.205,0.571l1.206,0.163h1.205l1.205,0.408l1.704,0.571l1.206,0.571l1.205,0.082l1.205,0.49l1.705,0.571
		l1.205,0.571h1.704h1.205h1.705h1.205h1.205h1.205h1.206h1.205h1.205l1.705,0.571l1.205,0.571l1.205,0.571l1.205,0.571l1.206,0.571
		l1.704,0.571l1.205,0.571l1.205,0.571l1.705,0.571l1.205,0.571l1.704,4.894l1.206,0.816l1.704,1.631h1.205h1.205l1.705,0.815h1.205
		h1.205h1.206h1.205h1.205h1.205h1.206h1.704h1.205l1.205,0.816h1.206h1.205H1130"/>
</g>
<g>
	<path fill="none" stroke="#000000" stroke-width="2" stroke-linejoin="round" stroke-miterlimit="10" d="M1186,313.647h1.208
		l1.208,1.119h1.209l1.708,0.479h1.209l1.208-0.578l1.208-0.578l1.208-1.156l1.209-0.578l1.208-1.155l1.208-1.156l1.208-0.578
		l1.208-0.578l1.209,1.217l1.208,0.561l1.208-0.533h1.208h1.209l1.208,0.533l1.709,3.2l1.208,0.533l1.708-1.6l1.209-1.6l1.208-2.667
		h1.208l1.209-4.267l1.208-4.267l1.208-4.8l1.208,1.6l1.208-6.933l1.209-6.934l1.208-7.466l1.709-6.934l1.208-7.466l1.208-4.8
		l1.208-2.667l1.209,0.533l1.208,2.667l1.208,5.333l1.208,6.934l1.208,9.6l1.209,10.133l1.708,5.333l1.209,5.867l1.708,1.067h1.709
		l1.709,1.066l1.208-1.066h1.208l1.208,2.667h1.209l1.208,1.066l1.208,1.6l1.709,4.8h1.208l1.208,2.447l1.208,2.447l1.709,1.835
		l1.209,1.835l1.208,0.612l1.208,0.612l1.709-1.224l1.208-0.612l1.208-0.612h1.208h1.209l1.708-0.611l1.209-0.88l1.208-1.153
		l1.208-0.537l1.709-2.08l1.208-1.387l1.208-0.693l1.208-0.693l1.209-2.08l1.208-0.693l1.208,0.783l1.208,1.384l1.709-2.6
		l1.208,1.453h1.208l1.209-0.612h1.208l1.208,1.276l1.709,1.783l1.208,0.594l1.208,2.69l1.709,1.642h1.208h1.208l1.709-1.642
		l1.709-1.095l1.208-2.189l1.208-3.832l1.209-5.474l1.208-6.694l1.208-6.4l1.208-3.733l1.209,0.133l1.208,3.17l1.208,4.367
		l1.709,5.298l1.208,3.729l1.208,3.492l1.208,2.148l1.209,1.65l1.208,1.625l1.208,1.121l1.208,1.104l1.209,0.614l1.208,0.518
		l1.208,0.503l1.208,0.501l1.209-0.917l1.208-1.412l1.708-2.822l1.209-3.764l1.709-7.057l1.208-7.997l1.208-9.409l1.208-9.879
		l1.709-23.051l1.208-11.291l1.208-10.022l1.709-15.283l1.709-0.682l1.208-0.294l1.208-0.891h1.709h1.208l1.208,1.909l1.709,2.864
		l1.208,2.387l1.209,3.341l1.208,5.251l1.208,6.206l1.709,10.98l1.208,10.025l1.208,11.457l1.208,11.934l1.709,14.799l1.208,9.07
		l1.209,7.638l1.708,3.069l1.709,1.188l1.208,2.482l1.209,0.612l1.708,0.612l1.208-1.112h1.209l1.208-0.532h1.208l1.709-1.3
		l1.208-0.65l1.208-1.3l1.209-0.65l1.708-0.65h1.208l1.209-0.65l1.208,0.65l1.208,1.95l1.208,0.65l1.209,0.65l1.208,0.65l1.208-0.65
		l1.208,0.65h1.209l1.708,1.182l1.208-0.63l1.209-0.093l1.208-1.224l1.208-0.612l1.208-0.612l1.209-0.017l1.708-0.594l1.209-1.849
		l1.208-0.864l1.208,0.591h1.208l1.208,1.021l1.209,1.102h1.709l1.708,2.447l1.208-0.408l1.209-1.224l1.708-6.933l1.209-2.447
		l1.208-2.039l1.208-1.631h1.208l1.209,1.634l1.208,2.201l1.208,2.4l1.208,2.4l1.208,1.638l1.209,0.393l1.208,0.414l1.709,0.771
		l1.208,0.385l1.208,0.893l1.709,0.62l1.208,0.756l1.709,2.09l1.208,0.098l1.208-0.443l1.208-0.729l1.209-0.73l1.208-0.365
		l1.208-0.365l1.208-1.095l1.209-0.365l1.208-0.365l1.208-0.73h1.709l1.208-0.365l1.709-0.02l1.208-1.155l1.208-0.756l1.709-0.378
		l1.208,0.432l1.208,0.782l1.209,0.729l1.208,1.46l1.709-2.152l1.208-0.359h1.208l1.208,0.359l1.208,1.076l1.209,1.435l1.208,1.435
		l1.208,1.076l1.709,1.076h1.208l1.208-0.358l1.709-1.762h1.208l1.709-0.365l1.208-0.73l1.209-1.473l1.708-1.148l1.208-1.19
		l1.209-0.843l1.708-0.785l1.709,1.177l1.709,1.962h1.208h1.208l1.208,0.392l1.209,0.785l1.208,1.177l1.709-0.015l1.208,0.637
		l1.208,0.761l1.208,0.76l1.709,1.521l1.208,1.901l1.208,1.901l1.209,0.76l1.208,0.232l1.208-0.771l1.208-2.503l1.709-3.756
		l1.208-5.814l1.209-6.86l1.208-6.927l1.208-7.083l1.208-7.749l1.208-7.527l1.709-10.04l1.209-6.937l1.208,0.267l1.208-8.264
		l1.709-6.488l1.208-6.681l1.709,0.442l1.208-1.77l1.709,7.966l1.208,2.213l1.208,3.983l1.208,8.851l1.208,3.541l1.209,4.426
		l1.208,5.753l1.709,2.188l1.208,6.36l1.208,6.559l1.208,6.296l1.209,5.064l1.708,4.744l1.208,3.419l1.209,2.53l1.709,3.639
		l1.208,1.687h1.708h1.209l1.708,1.342l1.209-0.671h1.208l1.709,2.102l1.208-0.693l1.208,0.693h1.208l1.208,0.693l1.209-0.693
		l1.208-0.693h1.208l1.709,0.693h1.208l1.208,0.096h1.209l1.208,0.717l1.208-0.717"/>
</g>
<line fill="#FFFFFF" stroke="#FFFFFF" stroke-width="4" x1="577.5" y1="800.018" x2="645.396" y2="800.018"/>
<text transform="matrix(1 0 0 1 597.5 791.0449)" fill="#FFFFFF" font-family="'MyriadPro-Regular'" font-size="14">5 μm</text>
<text transform="matrix(-4.371139e-008 -1 1 -4.371139e-008 698.2568 742.6093)" font-family="'MyriadPro-Regular'" font-size="14">pixel intensity</text>
<text transform="matrix(-4.371139e-008 -1 1 -4.371139e-008 712.1992 812.5898)" font-family="'MyriadPro-Regular'" font-size="14">0</text>
<text transform="matrix(-4.371139e-008 -1 1 -4.371139e-008 712.1992 611.5898)" font-family="'MyriadPro-Regular'" font-size="14">255</text>
<text transform="matrix(-4.371139e-008 -1 1 -4.371139e-008 699.2856 504.6093)" font-family="'MyriadPro-Regular'" font-size="14">pixel intensity</text>
<text transform="matrix(-4.371139e-008 -1 1 -4.371139e-008 713.228 574.5898)" font-family="'MyriadPro-Regular'" font-size="14">0</text>
<text transform="matrix(-4.371139e-008 -1 1 -4.371139e-008 713.228 373.5893)" font-family="'MyriadPro-Regular'" font-size="14">255</text>
<text transform="matrix(-4.371139e-008 -1 1 -4.371139e-008 698.3145 267.519)" font-family="'MyriadPro-Regular'" font-size="14">pixel intensity</text>
<text transform="matrix(-4.371139e-008 -1 1 -4.371139e-008 712.2568 337.4995)" font-family="'MyriadPro-Regular'" font-size="14">0</text>
<text transform="matrix(-4.371139e-008 -1 1 -4.371139e-008 712.2568 136.4995)" font-family="'MyriadPro-Regular'" font-size="14">255</text>
<text transform="matrix(1 0 0 1 891.5 840.9999)" font-family="'MyriadPro-Regular'" font-size="14">distance (μm)</text>
<line fill="none" stroke="#000000" stroke-width="1.5" x1="714.5" y1="808.923" x2="719.5" y2="808.923"/>
<line fill="none" stroke="#000000" stroke-width="1.5" x1="714.5" y1="601" x2="719.5" y2="601"/>
<line fill="none" stroke="#000000" stroke-width="1.5" x1="715.5" y1="570.923" x2="720.5" y2="570.923"/>
<line fill="none" stroke="#000000" stroke-width="1.5" x1="715.5" y1="363" x2="720.5" y2="363"/>
<line fill="none" stroke="#000000" stroke-width="1.5" x1="714.5" y1="331.923" x2="719.5" y2="331.923"/>
<line fill="none" stroke="#000000" stroke-width="1.5" x1="714.5" y1="124" x2="719.5" y2="124"/>
<line fill="none" stroke="#000000" stroke-width="1.5" stroke-miterlimit="10" x1="721" y1="811.868" x2="721" y2="816.668"/>
<line fill="none" stroke="#000000" stroke-width="1.5" stroke-miterlimit="10" x1="1130.003" y1="811.628" x2="1130.003" y2="816.428"/>
<text transform="matrix(1 0 0 1 717.168 827.4433)" font-family="'MyriadPro-Regular'" font-size="14">0</text>
<text transform="matrix(1 0 0 1 1123.502 827.4433)" font-family="'MyriadPro-Regular'" font-size="14">35</text>
<line fill="none" stroke="#000000" stroke-width="1.5" x1="1179.5" y1="332.007" x2="1184.5" y2="332.007"/>
<line fill="none" stroke="#000000" stroke-width="1.5" x1="1179.5" y1="124" x2="1184.5" y2="124"/>
<text transform="matrix(-4.371139e-008 -1 1 -4.371139e-008 1163.8145 285.519)" font-family="'MyriadPro-Regular'" font-size="14">normalized intensity</text>
<text transform="matrix(-4.371139e-008 -1 1 -4.371139e-008 1177.7568 335.4995)" font-family="'MyriadPro-Regular'" font-size="14">0</text>
<line fill="none" stroke="#000000" stroke-width="1.5" x1="1177" y1="291.5" x2="1182" y2="291.5"/>
<text transform="matrix(-4.371139e-008 -1 1 -4.371139e-008 1176.2568 295.518)" font-family="'MyriadPro-Regular'" font-size="14">2</text>
<text transform="matrix(-4.371139e-008 -1 1 -4.371139e-008 1178.5 130.518)" font-family="'MyriadPro-Regular'" font-size="14">10</text>
<line fill="none" stroke="#000000" stroke-width="1.5" x1="1179.5" y1="575.008" x2="1184.5" y2="575.008"/>
<line fill="none" stroke="#000000" stroke-width="1.5" x1="1179.5" y1="367" x2="1184.5" y2="367"/>
<text transform="matrix(-4.371139e-008 -1 1 -4.371139e-008 1163.8145 528.5195)" font-family="'MyriadPro-Regular'" font-size="14">normalized intensity</text>
<text transform="matrix(-4.371139e-008 -1 1 -4.371139e-008 1177.7568 578.4999)" font-family="'MyriadPro-Regular'" font-size="14">0</text>
<line fill="none" stroke="#000000" stroke-width="1.5" x1="1177" y1="534.5" x2="1182" y2="534.5"/>
<text transform="matrix(-4.371139e-008 -1 1 -4.371139e-008 1176.2568 538.5195)" font-family="'MyriadPro-Regular'" font-size="14">2</text>
<text transform="matrix(-4.371139e-008 -1 1 -4.371139e-008 1178.5 373.518)" font-family="'MyriadPro-Regular'" font-size="14">10</text>
<line fill="none" stroke="#000000" stroke-width="1.5" x1="1179.5" y1="810.008" x2="1184.5" y2="810.008"/>
<line fill="none" stroke="#000000" stroke-width="1.5" x1="1179.5" y1="602" x2="1184.5" y2="602"/>
<text transform="matrix(-4.371139e-008 -1 1 -4.371139e-008 1163.8145 763.5195)" font-family="'MyriadPro-Regular'" font-size="14">normalized intensity</text>
<text transform="matrix(-4.371139e-008 -1 1 -4.371139e-008 1177.7568 813.4999)" font-family="'MyriadPro-Regular'" font-size="14">0</text>
<line fill="none" stroke="#000000" stroke-width="1.5" x1="1177" y1="769.5" x2="1182" y2="769.5"/>
<text transform="matrix(-4.371139e-008 -1 1 -4.371139e-008 1176.2568 773.5195)" font-family="'MyriadPro-Regular'" font-size="14">2</text>
<text transform="matrix(-4.371139e-008 -1 1 -4.371139e-008 1178.5 608.5175)" font-family="'MyriadPro-Regular'" font-size="14">10</text>
<text transform="matrix(1 0 0 1 1356.332 838.3798)" font-family="'MyriadPro-Regular'" font-size="14">distance (μm)</text>
<line fill="none" stroke="#000000" stroke-width="1.5" stroke-miterlimit="10" x1="1185.832" y1="809.248" x2="1185.832" y2="814.048"/>
<line fill="none" stroke="#000000" stroke-width="1.5" stroke-miterlimit="10" x1="1594.835" y1="809.008" x2="1594.835" y2="813.808"/>
<text transform="matrix(1 0 0 1 1182 824.8232)" font-family="'MyriadPro-Regular'" font-size="14">0</text>
<text transform="matrix(1 0 0 1 1588.334 824.8232)" font-family="'MyriadPro-Regular'" font-size="14">35</text>
<text transform="matrix(1 0 0 1 224.127 123.9999)" font-family="'MyriadPro-Regular'" font-size="28">A</text>
<text transform="matrix(1 0 0 1 224.127 362.9999)" font-family="'MyriadPro-Regular'" font-size="28">D</text>
<text transform="matrix(1 0 0 1 224.127 600.9999)" font-family="'MyriadPro-Regular'" font-size="28">G</text>
<text transform="matrix(1 0 0 1 679.1479 123.9999)" font-family="'MyriadPro-Regular'" font-size="28">B</text>
<text transform="matrix(1 0 0 1 679.1479 362.9999)" font-family="'MyriadPro-Regular'" font-size="28">E</text>
<text transform="matrix(1 0 0 1 679.1479 600.9999)" font-family="'MyriadPro-Regular'" font-size="28">H</text>
<text transform="matrix(1 0 0 1 1145.624 125.4101)" font-family="'MyriadPro-Regular'" font-size="28">C</text>
<text transform="matrix(1 0 0 1 1145.624 373.5893)" font-family="'MyriadPro-Regular'" font-size="28">F</text>
<text transform="matrix(1 0 0 1 1145.624 600.9999)" font-family="'MyriadPro-Regular'" font-size="28">I</text>
</svg>
