<?xml version="1.0" encoding="utf-8"?>
<!-- Generator: Adobe Illustrator 16.0.5, SVG Export Plug-In . SVG Version: 6.00 Build 0)  -->
<!DOCTYPE svg PUBLIC "-//W3C//DTD SVG 1.1//EN" "http://www.w3.org/Graphics/SVG/1.1/DTD/svg11.dtd">
<svg version="1.1" id="Layer_1" xmlns="http://www.w3.org/2000/svg" xmlns:xlink="http://www.w3.org/1999/xlink" x="0px" y="0px"
	 width="1920px" height="963px" viewBox="0 0 1920 963" enable-background="new 0 0 1920 963" xml:space="preserve">
<g>
	<defs>
		<rect id="SVGID_1_" x="614.503" y="102" width="759.003" height="208.002"/>
	</defs>
	<clipPath id="SVGID_2_">
		<use xlink:href="#SVGID_1_"  overflow="visible"/>
	</clipPath>
	<g transform="matrix(1 0 0 1 0 -7.629395e-006)" clip-path="url(#SVGID_2_)" enable-background="new    ">
		
			<image overflow="visible" width="551" height="151" xlink:href="E4DED068.jpg"  transform="matrix(1.3775 0 0 1.3775 614.5029 102)">
		</image>
	</g>
</g>
<g>
	<defs>
		<rect id="SVGID_3_" x="614.503" y="361.003" width="759.003" height="208.002"/>
	</defs>
	<clipPath id="SVGID_4_">
		<use xlink:href="#SVGID_3_"  overflow="visible"/>
	</clipPath>
	<g transform="matrix(1 0 0 1 0 -3.051758e-005)" clip-path="url(#SVGID_4_)" enable-background="new    ">
		
			<image overflow="visible" width="551" height="151" xlink:href="E4DED069.png"  transform="matrix(1.3775 0 0 1.3775 614.5029 361.0039)">
		</image>
	</g>
</g>
<g>
	
		<line fill="none" stroke="#FF0000" stroke-width="0.6667" stroke-linejoin="round" stroke-miterlimit="10" x1="859.925" y1="457.653" x2="857.515" y2="465.574"/>
	
		<line fill="none" stroke="#FF0000" stroke-width="0.6667" stroke-linejoin="round" stroke-miterlimit="10" x1="935.112" y1="469.993" x2="937.523" y2="479.234"/>
	
		<line fill="none" stroke="#FF0000" stroke-width="0.6667" stroke-linejoin="round" stroke-miterlimit="10" x1="1161.249" y1="481.76" x2="1158.093" y2="488.073"/>
	
		<line fill="none" stroke="#FF0000" stroke-width="0.6667" stroke-linejoin="round" stroke-miterlimit="10" x1="1079.863" y1="461.671" x2="1078.485" y2="469.592"/>
	
		<line fill="none" stroke="#FF0000" stroke-width="0.6667" stroke-linejoin="round" stroke-miterlimit="10" x1="1077.223" y1="461.097" x2="1073.435" y2="468.673"/>
	
		<line fill="none" stroke="#FF0000" stroke-width="0.6667" stroke-linejoin="round" stroke-miterlimit="10" x1="793.06" y1="459.834" x2="796.848" y2="467.41"/>
	
		<line fill="none" stroke="#FF0000" stroke-width="0.6667" stroke-linejoin="round" stroke-miterlimit="10" x1="1066.777" y1="457.711" x2="1065.17" y2="466.951"/>
	
		<line fill="none" stroke="#FF0000" stroke-width="0.6667" stroke-linejoin="round" stroke-miterlimit="10" x1="899.471" y1="464.483" x2="897.06" y2="472.404"/>
	
		<line fill="none" stroke="#FF0000" stroke-width="0.6667" stroke-linejoin="round" stroke-miterlimit="10" x1="1087.669" y1="461.786" x2="1082.848" y2="469.821"/>
	
		<line fill="none" stroke="#FF0000" stroke-width="0.6667" stroke-linejoin="round" stroke-miterlimit="10" x1="1117.055" y1="465.918" x2="1115.047" y2="475.159"/>
	
		<line fill="none" stroke="#FF0000" stroke-width="0.6667" stroke-linejoin="round" stroke-miterlimit="10" x1="1323.907" y1="486.523" x2="1322.76" y2="493.124"/>
	
		<line fill="none" stroke="#FF0000" stroke-width="0.6667" stroke-linejoin="round" stroke-miterlimit="10" x1="624.146" y1="435.557" x2="625.523" y2="443.477"/>
	
		<line fill="none" stroke="#FF0000" stroke-width="0.6667" stroke-linejoin="round" stroke-miterlimit="10" x1="744.217" y1="454.898" x2="741.404" y2="464.139"/>
	
		<line fill="none" stroke="#FF0000" stroke-width="0.6667" stroke-linejoin="round" stroke-miterlimit="10" x1="850.742" y1="456.735" x2="850.742" y2="463.622"/>
	
		<line fill="none" stroke="#FF0000" stroke-width="0.6667" stroke-linejoin="round" stroke-miterlimit="10" x1="917.894" y1="468.616" x2="915.828" y2="476.536"/>
	
		<line fill="none" stroke="#FF0000" stroke-width="0.6667" stroke-linejoin="round" stroke-miterlimit="10" x1="656.058" y1="436.991" x2="653.646" y2="444.912"/>
	
		<line fill="none" stroke="#FF0000" stroke-width="0.6667" stroke-linejoin="round" stroke-miterlimit="10" x1="690.609" y1="445.198" x2="688.199" y2="454.439"/>
	
		<line fill="none" stroke="#FF0000" stroke-width="0.6667" stroke-linejoin="round" stroke-miterlimit="10" x1="936.49" y1="469.993" x2="938.9" y2="479.234"/>
	
		<line fill="none" stroke="#FF0000" stroke-width="0.6667" stroke-linejoin="round" stroke-miterlimit="10" x1="980.914" y1="457.424" x2="985.735" y2="465.459"/>
	
		<line fill="none" stroke="#FF0000" stroke-width="0.6667" stroke-linejoin="round" stroke-miterlimit="10" x1="791.51" y1="459.031" x2="793.921" y2="468.271"/>
	
		<line fill="none" stroke="#FF0000" stroke-width="0.6667" stroke-linejoin="round" stroke-miterlimit="10" x1="726.769" y1="448.011" x2="724.357" y2="457.252"/>
	
		<line fill="none" stroke="#FF0000" stroke-width="0.6667" stroke-linejoin="round" stroke-miterlimit="10" x1="725.391" y1="448.011" x2="722.98" y2="457.252"/>
	
		<line fill="none" stroke="#FF0000" stroke-width="0.6667" stroke-linejoin="round" stroke-miterlimit="10" x1="979.709" y1="457.596" x2="982.521" y2="466.837"/>
	
		<line fill="none" stroke="#FF0000" stroke-width="0.6667" stroke-linejoin="round" stroke-miterlimit="10" x1="736.755" y1="450.823" x2="734.345" y2="460.064"/>
	
		<line fill="none" stroke="#FF0000" stroke-width="0.6667" stroke-linejoin="round" stroke-miterlimit="10" x1="1306.345" y1="481.014" x2="1304.278" y2="488.934"/>
	
		<line fill="none" stroke="#FF0000" stroke-width="0.6667" stroke-linejoin="round" stroke-miterlimit="10" x1="707.483" y1="448.011" x2="712.305" y2="456.047"/>
	
		<line fill="none" stroke="#FF0000" stroke-width="0.6667" stroke-linejoin="round" stroke-miterlimit="10" x1="1254.345" y1="487.958" x2="1256.41" y2="495.879"/>
	
		<line fill="none" stroke="#FF0000" stroke-width="0.6667" stroke-linejoin="round" stroke-miterlimit="10" x1="1146.212" y1="478.545" x2="1142.079" y2="485.433"/>
	
		<line fill="none" stroke="#FF0000" stroke-width="0.6667" stroke-linejoin="round" stroke-miterlimit="10" x1="863.655" y1="458.974" x2="861.245" y2="466.894"/>
	
		<line fill="none" stroke="#FF0000" stroke-width="0.6667" stroke-linejoin="round" stroke-miterlimit="10" x1="1154.477" y1="481.014" x2="1153.1" y2="488.934"/>
	
		<line fill="none" stroke="#FF0000" stroke-width="0.6667" stroke-linejoin="round" stroke-miterlimit="10" x1="873.24" y1="463.163" x2="871.519" y2="471.084"/>
	
		<line fill="none" stroke="#FF0000" stroke-width="0.6667" stroke-linejoin="round" stroke-miterlimit="10" x1="1210.609" y1="489.393" x2="1208.199" y2="498.634"/>
	
		<line fill="none" stroke="#FF0000" stroke-width="0.6667" stroke-linejoin="round" stroke-miterlimit="10" x1="914.049" y1="465.976" x2="911.236" y2="475.217"/>
	
		<line fill="none" stroke="#FF0000" stroke-width="0.6667" stroke-linejoin="round" stroke-miterlimit="10" x1="1216.693" y1="492.091" x2="1212.217" y2="498.978"/>
	
		<line fill="none" stroke="#FF0000" stroke-width="0.6667" stroke-linejoin="round" stroke-miterlimit="10" x1="825.947" y1="458.112" x2="825.947" y2="465"/>
	
		<line fill="none" stroke="#FF0000" stroke-width="0.6667" stroke-linejoin="round" stroke-miterlimit="10" x1="1340.207" y1="492.091" x2="1338.199" y2="501.331"/>
	
		<line fill="none" stroke="#FF0000" stroke-width="0.6667" stroke-linejoin="round" stroke-miterlimit="10" x1="1144.088" y1="476.996" x2="1141.275" y2="486.236"/>
	
		<line fill="none" stroke="#FF0000" stroke-width="0.6667" stroke-linejoin="round" stroke-miterlimit="10" x1="790.133" y1="459.031" x2="792.888" y2="469.592"/>
	
		<line fill="none" stroke="#FF0000" stroke-width="0.6667" stroke-linejoin="round" stroke-miterlimit="10" x1="1040.146" y1="456.219" x2="1041.523" y2="464.139"/>
	
		<line fill="none" stroke="#FF0000" stroke-width="0.6667" stroke-linejoin="round" stroke-miterlimit="10" x1="1352.892" y1="494.903" x2="1350.596" y2="505.464"/>
	
		<line fill="none" stroke="#FF0000" stroke-width="0.6667" stroke-linejoin="round" stroke-miterlimit="10" x1="648.424" y1="434.179" x2="646.702" y2="442.1"/>
	
		<line fill="none" stroke="#FF0000" stroke-width="0.6667" stroke-linejoin="round" stroke-miterlimit="10" x1="735.033" y1="450.766" x2="732.622" y2="460.007"/>
	
		<line fill="none" stroke="#FF0000" stroke-width="0.6667" stroke-linejoin="round" stroke-miterlimit="10" x1="823.192" y1="458.112" x2="823.192" y2="465"/>
	
		<line fill="none" stroke="#FF0000" stroke-width="0.6667" stroke-linejoin="round" stroke-miterlimit="10" x1="1325.285" y1="486.523" x2="1323.907" y2="494.443"/>
	
		<line fill="none" stroke="#FF0000" stroke-width="0.6667" stroke-linejoin="round" stroke-miterlimit="10" x1="1342.273" y1="492.147" x2="1340.438" y2="502.709"/>
	
		<line fill="none" stroke="#FF0000" stroke-width="0.6667" stroke-linejoin="round" stroke-miterlimit="10" x1="861.762" y1="457.653" x2="859.695" y2="465.574"/>
	
		<line fill="none" stroke="#FF0000" stroke-width="0.6667" stroke-linejoin="round" stroke-miterlimit="10" x1="920.993" y1="468.673" x2="918.583" y2="477.914"/>
	
		<line fill="none" stroke="#FF0000" stroke-width="0.6667" stroke-linejoin="round" stroke-miterlimit="10" x1="1057.881" y1="456.219" x2="1055.471" y2="464.139"/>
	
		<line fill="none" stroke="#FF0000" stroke-width="0.6667" stroke-linejoin="round" stroke-miterlimit="10" x1="1291.651" y1="479.923" x2="1296.473" y2="486.811"/>
	
		<line fill="none" stroke="#FF0000" stroke-width="0.6667" stroke-linejoin="round" stroke-miterlimit="10" x1="1115.047" y1="465.345" x2="1111.258" y2="472.921"/>
	
		<line fill="none" stroke="#FF0000" stroke-width="0.6667" stroke-linejoin="round" stroke-miterlimit="10" x1="1038.769" y1="456.219" x2="1040.146" y2="464.139"/>
	
		<line fill="none" stroke="#FF0000" stroke-width="0.6667" stroke-linejoin="round" stroke-miterlimit="10" x1="990.212" y1="456.219" x2="992.622" y2="465.459"/>
	
		<line fill="none" stroke="#FF0000" stroke-width="0.6667" stroke-linejoin="round" stroke-miterlimit="10" x1="1059.258" y1="456.219" x2="1056.848" y2="464.139"/>
	
		<line fill="none" stroke="#FF0000" stroke-width="0.6667" stroke-linejoin="round" stroke-miterlimit="10" x1="915.483" y1="467.296" x2="913.073" y2="476.536"/>
	
		<line fill="none" stroke="#FF0000" stroke-width="0.6667" stroke-linejoin="round" stroke-miterlimit="10" x1="1301.179" y1="479.693" x2="1299.112" y2="487.613"/>
	
		<line fill="none" stroke="#FF0000" stroke-width="0.6667" stroke-linejoin="round" stroke-miterlimit="10" x1="653.303" y1="435.613" x2="648.825" y2="442.501"/>
	
		<line fill="none" stroke="#FF0000" stroke-width="0.6667" stroke-linejoin="round" stroke-miterlimit="10" x1="1329.303" y1="488.646" x2="1326.777" y2="493.697"/>
	
		<line fill="none" stroke="#FF0000" stroke-width="0.6667" stroke-linejoin="round" stroke-miterlimit="10" x1="669.086" y1="439.688" x2="667.077" y2="448.93"/>
	
		<line fill="none" stroke="#FF0000" stroke-width="0.6667" stroke-linejoin="round" stroke-miterlimit="10" x1="1343.881" y1="493.468" x2="1341.471" y2="502.709"/>
	
		<line fill="none" stroke="#FF0000" stroke-width="0.6667" stroke-linejoin="round" stroke-miterlimit="10" x1="1151.951" y1="481.07" x2="1147.475" y2="487.958"/>
	
		<line fill="none" stroke="#FF0000" stroke-width="0.6667" stroke-linejoin="round" stroke-miterlimit="10" x1="1153.156" y1="479.75" x2="1151.148" y2="488.991"/>
	
		<line fill="none" stroke="#FF0000" stroke-width="0.6667" stroke-linejoin="round" stroke-miterlimit="10" x1="1114.76" y1="464.541" x2="1113.152" y2="473.781"/>
	
		<line fill="none" stroke="#FF0000" stroke-width="0.6667" stroke-linejoin="round" stroke-miterlimit="10" x1="1124.861" y1="468.673" x2="1123.483" y2="479.234"/>
	
		<line fill="none" stroke="#FF0000" stroke-width="0.6667" stroke-linejoin="round" stroke-miterlimit="10" x1="740.543" y1="453.521" x2="738.133" y2="462.762"/>
	
		<line fill="none" stroke="#FF0000" stroke-width="0.6667" stroke-linejoin="round" stroke-miterlimit="10" x1="730.9" y1="449.389" x2="728.49" y2="458.629"/>
	
		<line fill="none" stroke="#FF0000" stroke-width="0.6667" stroke-linejoin="round" stroke-miterlimit="10" x1="672.874" y1="440.55" x2="669.086" y2="448.126"/>
	
		<line fill="none" stroke="#FF0000" stroke-width="0.6667" stroke-linejoin="round" stroke-miterlimit="10" x1="1350.539" y1="494.903" x2="1348.702" y2="505.464"/>
	
		<line fill="none" stroke="#FF0000" stroke-width="0.6667" stroke-linejoin="round" stroke-miterlimit="10" x1="969.894" y1="459.261" x2="975.404" y2="468.443"/>
	
		<line fill="none" stroke="#FF0000" stroke-width="0.6667" stroke-linejoin="round" stroke-miterlimit="10" x1="829.965" y1="457.539" x2="828.243" y2="465.459"/>
	
		<line fill="none" stroke="#FF0000" stroke-width="0.6667" stroke-linejoin="round" stroke-miterlimit="10" x1="733.655" y1="450.766" x2="731.245" y2="460.007"/>
	
		<line fill="none" stroke="#FF0000" stroke-width="0.6667" stroke-linejoin="round" stroke-miterlimit="10" x1="1152.354" y1="479.75" x2="1149.942" y2="487.671"/>
	
		<line fill="none" stroke="#FF0000" stroke-width="0.6667" stroke-linejoin="round" stroke-miterlimit="10" x1="1193.735" y1="488.417" x2="1193.735" y2="495.305"/>
	
		<line fill="none" stroke="#FF0000" stroke-width="0.6667" stroke-linejoin="round" stroke-miterlimit="10" x1="732.622" y1="449.446" x2="730.212" y2="458.687"/>
	
		<line fill="none" stroke="#FF0000" stroke-width="0.6667" stroke-linejoin="round" stroke-miterlimit="10" x1="975.576" y1="458.974" x2="978.389" y2="468.214"/>
	
		<line fill="none" stroke="#FF0000" stroke-width="0.6667" stroke-linejoin="round" stroke-miterlimit="10" x1="1134.159" y1="473.265" x2="1128.936" y2="481.3"/>
	
		<line fill="none" stroke="#FF0000" stroke-width="0.6667" stroke-linejoin="round" stroke-miterlimit="10" x1="653.762" y1="436.991" x2="651.695" y2="444.912"/>
	
		<line fill="none" stroke="#FF0000" stroke-width="0.6667" stroke-linejoin="round" stroke-miterlimit="10" x1="1305.828" y1="481.014" x2="1303.417" y2="488.934"/>
	
		<line fill="none" stroke="#00FF00" stroke-width="0.6667" stroke-linejoin="round" stroke-miterlimit="10" x1="639.173" y1="429.563" x2="638.155" y2="443.811"/>
	
		<line fill="none" stroke="#00FF00" stroke-width="0.6667" stroke-linejoin="round" stroke-miterlimit="10" x1="719.969" y1="444.672" x2="718.249" y2="456.137"/>
	
		<line fill="none" stroke="#00FF00" stroke-width="0.6667" stroke-linejoin="round" stroke-miterlimit="10" x1="760.598" y1="448.646" x2="755.966" y2="477.981"/>
	
		<line fill="none" stroke="#00FF00" stroke-width="0.6667" stroke-linejoin="round" stroke-miterlimit="10" x1="796.104" y1="459.973" x2="796.923" y2="465.697"/>
	
		<line fill="none" stroke="#00FF00" stroke-width="0.6667" stroke-linejoin="round" stroke-miterlimit="10" x1="835.59" y1="457.222" x2="835.59" y2="465.973"/>
	
		<line fill="none" stroke="#00FF00" stroke-width="0.6667" stroke-linejoin="round" stroke-miterlimit="10" x1="868.273" y1="461.23" x2="864.595" y2="467.484"/>
	
		<line fill="none" stroke="#00FF00" stroke-width="0.6667" stroke-linejoin="round" stroke-miterlimit="10" x1="907.417" y1="465.386" x2="905.429" y2="475.328"/>
	
		<line fill="none" stroke="#00FF00" stroke-width="0.6667" stroke-linejoin="round" stroke-miterlimit="10" x1="949.495" y1="460.204" x2="956.84" y2="477.153"/>
	
		<line fill="none" stroke="#00FF00" stroke-width="0.6667" stroke-linejoin="round" stroke-miterlimit="10" x1="1048.564" y1="454.501" x2="1048.105" y2="463.212"/>
	
		<line fill="none" stroke="#00FF00" stroke-width="0.6667" stroke-linejoin="round" stroke-miterlimit="10" x1="1086.491" y1="462.47" x2="1084.894" y2="469.497"/>
	
		<line fill="none" stroke="#00FF00" stroke-width="0.6667" stroke-linejoin="round" stroke-miterlimit="10" x1="1141.829" y1="476.52" x2="1137.315" y2="485.548"/>
	
		<line fill="none" stroke="#00FF00" stroke-width="0.6667" stroke-linejoin="round" stroke-miterlimit="10" x1="1247.862" y1="490.038" x2="1249.267" y2="495.655"/>
	
		<line fill="none" stroke="#00FF00" stroke-width="0.6667" stroke-linejoin="round" stroke-miterlimit="10" x1="1336.942" y1="491.254" x2="1333.858" y2="496.188"/>
</g>
<g>
	<g transform="translate(624.9291,808.4419)">
		<circle fill="#FF0000" stroke="#FF0000" stroke-width="4" stroke-miterlimit="10" cx="0" cy="-40" r="1.333"/>
	</g>
	<g transform="translate(645.8179,808.0426)">
		<circle fill="#FF0000" stroke="#FF0000" stroke-width="4" stroke-miterlimit="10" cx="0" cy="-40" r="1.333"/>
	</g>
	<g transform="translate(650.3035,807.3843)">
		<circle fill="#FF0000" stroke="#FF0000" stroke-width="4" stroke-miterlimit="10" cx="0" cy="-40" r="1.333"/>
	</g>
	<g transform="translate(651.9604,807.559)">
		<circle fill="#FF0000" stroke="#FF0000" stroke-width="4" stroke-miterlimit="10" cx="0" cy="-40" r="1.333"/>
	</g>
	<g transform="translate(654.3037,806.9934)">
		<circle fill="#FF0000" stroke="#FF0000" stroke-width="4" stroke-miterlimit="10" cx="0" cy="-40" r="1.333"/>
	</g>
	<g transform="translate(666.9909,799.8831)">
		<circle fill="#FF0000" stroke="#FF0000" stroke-width="4" stroke-miterlimit="10" cx="0" cy="-40" r="1.333"/>
	</g>
	<g transform="translate(670.9911,805.8387)">
		<circle fill="#FF0000" stroke="#FF0000" stroke-width="4" stroke-miterlimit="10" cx="0" cy="-40" r="1.333"/>
	</g>
	<g transform="translate(688.365,799.3188)">
		<circle fill="#FF0000" stroke="#FF0000" stroke-width="4" stroke-miterlimit="10" cx="0" cy="-40" r="1.333"/>
	</g>
	<g transform="translate(709.538,800.4009)">
		<circle fill="#FF0000" stroke="#FF0000" stroke-width="4" stroke-miterlimit="10" cx="0" cy="-40" r="1.333"/>
	</g>
	<g transform="translate(721.7399,799.3188)">
		<circle fill="#FF0000" stroke="#FF0000" stroke-width="4" stroke-miterlimit="10" cx="0" cy="-40" r="1.333"/>
	</g>
	<g transform="translate(722.9115,799.3188)">
		<circle fill="#FF0000" stroke="#FF0000" stroke-width="4" stroke-miterlimit="10" cx="0" cy="-40" r="1.333"/>
	</g>
	<g transform="translate(727.5981,799.3188)">
		<circle fill="#FF0000" stroke="#FF0000" stroke-width="4" stroke-miterlimit="10" cx="0" cy="-40" r="1.333"/>
	</g>
	<g transform="translate(728.7698,799.3188)">
		<circle fill="#FF0000" stroke="#FF0000" stroke-width="4" stroke-miterlimit="10" cx="0" cy="-40" r="1.333"/>
	</g>
	<g transform="translate(731.113,799.3188)">
		<circle fill="#FF0000" stroke="#FF0000" stroke-width="4" stroke-miterlimit="10" cx="0" cy="-40" r="1.333"/>
	</g>
	<g transform="translate(732.2847,799.3188)">
		<circle fill="#FF0000" stroke="#FF0000" stroke-width="4" stroke-miterlimit="10" cx="0" cy="-40" r="1.333"/>
	</g>
	<g transform="translate(733.4564,799.3188)">
		<circle fill="#FF0000" stroke="#FF0000" stroke-width="4" stroke-miterlimit="10" cx="0" cy="-40" r="1.333"/>
	</g>
	<g transform="translate(738.6283,799.3188)">
		<circle fill="#FF0000" stroke="#FF0000" stroke-width="4" stroke-miterlimit="10" cx="0" cy="-40" r="1.333"/>
	</g>
	<g transform="translate(742.6286,798.659)">
		<circle fill="#FF0000" stroke="#FF0000" stroke-width="4" stroke-miterlimit="10" cx="0" cy="-40" r="1.333"/>
	</g>
	<g transform="translate(788.9749,791.0786)">
		<circle fill="#FF0000" stroke="#FF0000" stroke-width="4" stroke-miterlimit="10" cx="0" cy="-40" r="1.333"/>
	</g>
	<g transform="translate(790.1465,799.3188)">
		<circle fill="#FF0000" stroke="#FF0000" stroke-width="4" stroke-miterlimit="10" cx="0" cy="-40" r="1.333"/>
	</g>
	<g transform="translate(791.3182,805.8387)">
		<circle fill="#FF0000" stroke="#FF0000" stroke-width="4" stroke-miterlimit="10" cx="0" cy="-40" r="1.333"/>
	</g>
	<g transform="translate(819.7222,815.4)">
		<circle fill="#FF0000" stroke="#FF0000" stroke-width="4" stroke-miterlimit="10" cx="0" cy="-40" r="1.333"/>
	</g>
	<g transform="translate(822.0655,815.4)">
		<circle fill="#FF0000" stroke="#FF0000" stroke-width="4" stroke-miterlimit="10" cx="0" cy="-40" r="1.333"/>
	</g>
	<g transform="translate(823.7225,808.0426)">
		<circle fill="#FF0000" stroke="#FF0000" stroke-width="4" stroke-miterlimit="10" cx="0" cy="-40" r="1.333"/>
	</g>
	<g transform="translate(845.0965,815.4)">
		<circle fill="#FF0000" stroke="#FF0000" stroke-width="4" stroke-miterlimit="10" cx="0" cy="-40" r="1.333"/>
	</g>
	<g transform="translate(853.0971,806.9934)">
		<circle fill="#FF0000" stroke="#FF0000" stroke-width="4" stroke-miterlimit="10" cx="0" cy="-40" r="1.333"/>
	</g>
	<g transform="translate(854.2687,807.559)">
		<circle fill="#FF0000" stroke="#FF0000" stroke-width="4" stroke-miterlimit="10" cx="0" cy="-40" r="1.333"/>
	</g>
	<g transform="translate(855.4404,806.9934)">
		<circle fill="#FF0000" stroke="#FF0000" stroke-width="4" stroke-miterlimit="10" cx="0" cy="-40" r="1.333"/>
	</g>
	<g transform="translate(868.1276,808.0426)">
		<circle fill="#FF0000" stroke="#FF0000" stroke-width="4" stroke-miterlimit="10" cx="0" cy="-40" r="1.333"/>
	</g>
	<g transform="translate(891.1586,806.9934)">
		<circle fill="#FF0000" stroke="#FF0000" stroke-width="4" stroke-miterlimit="10" cx="0" cy="-40" r="1.333"/>
	</g>
	<g transform="translate(906.4733,798.659)">
		<circle fill="#FF0000" stroke="#FF0000" stroke-width="4" stroke-miterlimit="10" cx="0" cy="-40" r="1.333"/>
	</g>
	<g transform="translate(907.645,799.3188)">
		<circle fill="#FF0000" stroke="#FF0000" stroke-width="4" stroke-miterlimit="10" cx="0" cy="-40" r="1.333"/>
	</g>
	<g transform="translate(909.9883,807.559)">
		<circle fill="#FF0000" stroke="#FF0000" stroke-width="4" stroke-miterlimit="10" cx="0" cy="-40" r="1.333"/>
	</g>
	<g transform="translate(912.8169,799.3188)">
		<circle fill="#FF0000" stroke="#FF0000" stroke-width="4" stroke-miterlimit="10" cx="0" cy="-40" r="1.333"/>
	</g>
	<g transform="translate(927.8474,799.3188)">
		<circle fill="#FF0000" stroke="#FF0000" stroke-width="4" stroke-miterlimit="10" cx="0" cy="-40" r="1.333"/>
	</g>
	<g transform="translate(929.019,799.3188)">
		<circle fill="#FF0000" stroke="#FF0000" stroke-width="4" stroke-miterlimit="10" cx="0" cy="-40" r="1.333"/>
	</g>
	<g transform="translate(965.2225,792.3153)">
		<circle fill="#FF0000" stroke="#FF0000" stroke-width="4" stroke-miterlimit="10" cx="0" cy="-40" r="1.333"/>
	</g>
	<g transform="translate(969.2228,798.659)">
		<circle fill="#FF0000" stroke="#FF0000" stroke-width="4" stroke-miterlimit="10" cx="0" cy="-40" r="1.333"/>
	</g>
	<g transform="translate(973.2231,800.4009)">
		<circle fill="#FF0000" stroke="#FF0000" stroke-width="4" stroke-miterlimit="10" cx="0" cy="-40" r="1.333"/>
	</g>
	<g transform="translate(973.2231,798.659)">
		<circle fill="#FF0000" stroke="#FF0000" stroke-width="4" stroke-miterlimit="10" cx="0" cy="-40" r="1.333"/>
	</g>
	<g transform="translate(981.91,799.3188)">
		<circle fill="#FF0000" stroke="#FF0000" stroke-width="4" stroke-miterlimit="10" cx="0" cy="-40" r="1.333"/>
	</g>
	<g transform="translate(1024.8591,808.4419)">
		<circle fill="#FF0000" stroke="#FF0000" stroke-width="4" stroke-miterlimit="10" cx="0" cy="-40" r="1.333"/>
	</g>
	<g transform="translate(1026.0308,808.4419)">
		<circle fill="#FF0000" stroke="#FF0000" stroke-width="4" stroke-miterlimit="10" cx="0" cy="-40" r="1.333"/>
	</g>
	<g transform="translate(1038.9189,806.9934)">
		<circle fill="#FF0000" stroke="#FF0000" stroke-width="4" stroke-miterlimit="10" cx="0" cy="-40" r="1.333"/>
	</g>
	<g transform="translate(1040.0907,806.9934)">
		<circle fill="#FF0000" stroke="#FF0000" stroke-width="4" stroke-miterlimit="10" cx="0" cy="-40" r="1.333"/>
	</g>
	<g transform="translate(1049.9491,800.3489)">
		<circle fill="#FF0000" stroke="#FF0000" stroke-width="4" stroke-miterlimit="10" cx="0" cy="-40" r="1.333"/>
	</g>
	<g transform="translate(1060.293,805.8387)">
		<circle fill="#FF0000" stroke="#FF0000" stroke-width="4" stroke-miterlimit="10" cx="0" cy="-40" r="1.333"/>
	</g>
	<g transform="translate(1062.6364,808.4419)">
		<circle fill="#FF0000" stroke="#FF0000" stroke-width="4" stroke-miterlimit="10" cx="0" cy="-40" r="1.333"/>
	</g>
	<g transform="translate(1067.8082,800.4009)">
		<circle fill="#FF0000" stroke="#FF0000" stroke-width="4" stroke-miterlimit="10" cx="0" cy="-40" r="1.333"/>
	</g>
	<g transform="translate(1095.5259,805.8387)">
		<circle fill="#FF0000" stroke="#FF0000" stroke-width="4" stroke-miterlimit="10" cx="0" cy="-40" r="1.333"/>
	</g>
	<g transform="translate(1095.5259,800.3489)">
		<circle fill="#FF0000" stroke="#FF0000" stroke-width="4" stroke-miterlimit="10" cx="0" cy="-40" r="1.333"/>
	</g>
	<g transform="translate(1099.0409,799.8831)">
		<circle fill="#FF0000" stroke="#FF0000" stroke-width="4" stroke-miterlimit="10" cx="0" cy="-40" r="1.333"/>
	</g>
	<g transform="translate(1107.2424,792.673)">
		<circle fill="#FF0000" stroke="#FF0000" stroke-width="4" stroke-miterlimit="10" cx="0" cy="-40" r="1.333"/>
	</g>
	<g transform="translate(1119.7285,799.115)">
		<circle fill="#FF0000" stroke="#FF0000" stroke-width="4" stroke-miterlimit="10" cx="0" cy="-40" r="1.333"/>
	</g>
	<g transform="translate(1131.7294,808.4865)">
		<circle fill="#FF0000" stroke="#FF0000" stroke-width="4" stroke-miterlimit="10" cx="0" cy="-40" r="1.333"/>
	</g>
	<g transform="translate(1131.7294,798.659)">
		<circle fill="#FF0000" stroke="#FF0000" stroke-width="4" stroke-miterlimit="10" cx="0" cy="-40" r="1.333"/>
	</g>
	<g transform="translate(1138.5582,807.3843)">
		<circle fill="#FF0000" stroke="#FF0000" stroke-width="4" stroke-miterlimit="10" cx="0" cy="-40" r="1.333"/>
	</g>
	<g transform="translate(1139.73,806.9934)">
		<circle fill="#FF0000" stroke="#FF0000" stroke-width="4" stroke-miterlimit="10" cx="0" cy="-40" r="1.333"/>
	</g>
	<g transform="translate(1140.9016,799.8831)">
		<circle fill="#FF0000" stroke="#FF0000" stroke-width="4" stroke-miterlimit="10" cx="0" cy="-40" r="1.333"/>
	</g>
	<g transform="translate(1142.5586,808.4419)">
		<circle fill="#FF0000" stroke="#FF0000" stroke-width="4" stroke-miterlimit="10" cx="0" cy="-40" r="1.333"/>
	</g>
	<g transform="translate(1149.3875,814.3657)">
		<circle fill="#FF0000" stroke="#FF0000" stroke-width="4" stroke-miterlimit="10" cx="0" cy="-40" r="1.333"/>
	</g>
	<g transform="translate(1185.993,815.4)">
		<circle fill="#FF0000" stroke="#FF0000" stroke-width="4" stroke-miterlimit="10" cx="0" cy="-40" r="1.333"/>
	</g>
	<g transform="translate(1200.3372,799.3188)">
		<circle fill="#FF0000" stroke="#FF0000" stroke-width="4" stroke-miterlimit="10" cx="0" cy="-40" r="1.333"/>
	</g>
	<g transform="translate(1205.509,807.3843)">
		<circle fill="#FF0000" stroke="#FF0000" stroke-width="4" stroke-miterlimit="10" cx="0" cy="-40" r="1.333"/>
	</g>
	<g transform="translate(1246.1149,807.559)">
		<circle fill="#FF0000" stroke="#FF0000" stroke-width="4" stroke-miterlimit="10" cx="0" cy="-40" r="1.333"/>
	</g>
	<g transform="translate(1285.348,806.2207)">
		<circle fill="#FF0000" stroke="#FF0000" stroke-width="4" stroke-miterlimit="10" cx="0" cy="-40" r="1.333"/>
	</g>
	<g transform="translate(1288.863,807.559)">
		<circle fill="#FF0000" stroke="#FF0000" stroke-width="4" stroke-miterlimit="10" cx="0" cy="-40" r="1.333"/>
	</g>
	<g transform="translate(1292.3779,806.9934)">
		<circle fill="#FF0000" stroke="#FF0000" stroke-width="4" stroke-miterlimit="10" cx="0" cy="-40" r="1.333"/>
	</g>
	<g transform="translate(1293.5496,807.559)">
		<circle fill="#FF0000" stroke="#FF0000" stroke-width="4" stroke-miterlimit="10" cx="0" cy="-40" r="1.333"/>
	</g>
	<g transform="translate(1311.4087,816.5349)">
		<circle fill="#FF0000" stroke="#FF0000" stroke-width="4" stroke-miterlimit="10" cx="0" cy="-40" r="1.333"/>
	</g>
	<g transform="translate(1312.5803,808.4419)">
		<circle fill="#FF0000" stroke="#FF0000" stroke-width="4" stroke-miterlimit="10" cx="0" cy="-40" r="1.333"/>
	</g>
	<g transform="translate(1316.5807,822.8925)">
		<circle fill="#FF0000" stroke="#FF0000" stroke-width="4" stroke-miterlimit="10" cx="0" cy="-40" r="1.333"/>
	</g>
	<g transform="translate(1329.2678,799.8831)">
		<circle fill="#FF0000" stroke="#FF0000" stroke-width="4" stroke-miterlimit="10" cx="0" cy="-40" r="1.333"/>
	</g>
	<g transform="translate(1331.6111,792.2559)">
		<circle fill="#FF0000" stroke="#FF0000" stroke-width="4" stroke-miterlimit="10" cx="0" cy="-40" r="1.333"/>
	</g>
	<g transform="translate(1332.7828,799.3188)">
		<circle fill="#FF0000" stroke="#FF0000" stroke-width="4" stroke-miterlimit="10" cx="0" cy="-40" r="1.333"/>
	</g>
	<g transform="translate(1340.9844,792.2559)">
		<circle fill="#FF0000" stroke="#FF0000" stroke-width="4" stroke-miterlimit="10" cx="0" cy="-40" r="1.333"/>
	</g>
	<g transform="translate(1343.3276,791.7235)">
		<circle fill="#FF0000" stroke="#FF0000" stroke-width="4" stroke-miterlimit="10" cx="0" cy="-40" r="1.333"/>
	</g>
</g>
<g>
	<path fill="none" stroke="#000000" stroke-width="2" stroke-linejoin="round" stroke-miterlimit="10" d="M624.929,768.441
		l20.89-0.398l4.485-0.484l1.656-0.174l2.344-0.392l12.688-1.154l4-5.438l17.374-0.518l21.173-0.564h12.202h1.171h4.687h1.172h2.344
		h1.172h1.171h5.172h4.001h46.346h1.172l1.172,6.521l28.404,2.204l2.343,7.357h1.657l21.374-7.357l8-0.484h1.172l1.172-0.565h12.688
		h23.03h15.315l1.171-7.675h2.344h2.828h15.031h1.171h36.204l4-0.659h4v0.659l8.688,1.082l42.949,6.593h1.172h12.888h1.172h9.858
		l10.344-1.154h2.344h5.172l27.717-5.438v-0.052l3.516-0.466h8.201l12.486-0.768h12.001v7.878h6.829h1.172l1.171,0.392l1.657,1.057
		h6.829h36.605l14.344-0.883l5.172-0.174h40.606h39.232l3.516,0.174h3.515h1.172l17.858,0.883h1.172h4.001l12.687-8.559l2.344-0.564
		l1.172-7.063h8.201l2.344-0.532"/>
</g>
<g>
	<path fill="none" stroke="#808080" stroke-width="2" stroke-linejoin="bevel" stroke-miterlimit="1" stroke-dasharray="1,3" d="
		M624.929,743.481l20.89-0.398l4.485-0.484l1.656-0.175l2.344-0.391l12.688-1.154l4-5.438l17.374-0.519l21.173-0.564h12.202h1.171
		h4.687h1.172h2.344h1.172h1.171h5.172h4.001h46.346h1.172l1.172,6.521l28.404,2.204l2.343,7.357h1.657l21.374-7.357l8-0.484h1.172
		l1.172-0.565h12.688h23.03h15.315l1.171-7.675h2.344h2.828h15.031h1.171h36.204l4-0.659h4v0.659l8.688,1.083l42.949,6.592h1.172
		h12.888h1.172h9.858l10.344-1.154h2.344h5.172l27.717-5.438v-0.053l3.516-0.466h8.201l12.486-0.768h12.001v7.878h6.829h1.172
		l1.171,0.391l1.657,1.058h6.829h36.605l14.344-0.883l5.172-0.175h40.606h39.232l3.516,0.175h3.515h1.172l17.858,0.883h1.172h4.001
		l12.687-8.559l2.344-0.564l1.172-7.063h8.201l2.344-0.532"/>
</g>
<g transform="translate(638.3026,770.7266)">
	<path fill="none" stroke="#00FF00" stroke-width="5" stroke-miterlimit="10" d="M-2.828-42.828l5.656,5.656 M-2.828-37.172
		l5.656-5.656"/>
	<path fill="none" stroke="#00FF00" stroke-width="5" stroke-miterlimit="10" d="M76.609-26.577l5.657,5.656 M76.609-20.921
		l5.657-5.656"/>
	<path fill="none" stroke="#00FF00" stroke-width="5" stroke-miterlimit="10" d="M116.327-135.938l5.656,5.656 M116.327-130.281
		l5.656-5.656"/>
	<path fill="none" stroke="#00FF00" stroke-width="5" stroke-miterlimit="10" d="M153.016,8.518l5.657,5.657 M153.016,14.176
		l5.657-5.657"/>
	<path fill="none" stroke="#00FF00" stroke-width="5" stroke-miterlimit="10" d="M190.592-9.411l5.657,5.656 M190.592-3.755
		l5.657-5.656"/>
	<path fill="none" stroke="#00FF00" stroke-width="5" stroke-miterlimit="10" d="M218.996-0.377l5.656,5.657 M218.996,5.28
		l5.656-5.657"/>
	<path fill="none" stroke="#00FF00" stroke-width="5" stroke-miterlimit="10" d="M259.199-17.798l5.657,5.657 M259.199-12.141
		l5.657-5.657"/>
	<path fill="none" stroke="#00FF00" stroke-width="5" stroke-miterlimit="10" d="M303.403-68.127l5.657,5.656 M303.403-62.471
		l5.657-5.656"/>
	<path fill="none" stroke="#00FF00" stroke-width="5" stroke-miterlimit="10" d="M391.93-9.244l5.656,5.656 M391.93-3.588
		l5.656-5.656"/>
	<path fill="none" stroke="#00FF00" stroke-width="5" stroke-miterlimit="10" d="M428.334-0.084l5.657,5.656 M428.334,5.572
		l5.657-5.656"/>
	<path fill="none" stroke="#00FF00" stroke-width="5" stroke-miterlimit="10" d="M481.426-17.522l5.657,5.657 M481.426-11.864
		l5.657-5.657"/>
	<path fill="none" stroke="#00FF00" stroke-width="5" stroke-miterlimit="10" d="M596.984,8.469l5.657,5.656 M596.984,14.125
		l5.657-5.656"/>
	<path fill="none" stroke="#00FF00" stroke-width="5" stroke-miterlimit="10" d="M681.308,8.303l5.657,5.656 M681.308,13.959
		l5.657-5.656"/>
</g>
<line fill="none" stroke="#000000" stroke-width="2" stroke-miterlimit="10" x1="624.929" y1="834.667" x2="1327.921" y2="834.667"/>
<text transform="matrix(1 0 0 1 960 853.334)" font-family="'MyriadPro-Regular'" font-size="19">60 μm</text>
<line fill="none" stroke="#000000" stroke-width="2" stroke-miterlimit="10" x1="598.2" y1="775.201" x2="606.84" y2="775.201"/>
<line fill="none" stroke="#000000" stroke-width="2" stroke-miterlimit="10" x1="598.2" y1="817" x2="606.841" y2="817"/>
<line fill="none" stroke="#000000" stroke-width="2" stroke-miterlimit="10" x1="598.2" y1="733.555" x2="606.841" y2="733.555"/>
<line fill="none" stroke="#000000" stroke-width="2" stroke-miterlimit="10" x1="598.2" y1="692.2" x2="606.841" y2="692.2"/>
<line fill="none" stroke="#000000" stroke-width="2" stroke-miterlimit="10" x1="598.2" y1="650.6" x2="606.841" y2="650.6"/>
<text transform="matrix(1 0 0 1 581.5 653.5996)" font-family="'MyriadPro-Regular'" font-size="12">2.0</text>
<text transform="matrix(1 0 0 1 581.5 696.2002)" font-family="'MyriadPro-Regular'" font-size="12">1.5</text>
<text transform="matrix(1 0 0 1 581.5 736.7998)" font-family="'MyriadPro-Regular'" font-size="12">1.0</text>
<text transform="matrix(1 0 0 1 581.5 778.0664)" font-family="'MyriadPro-Regular'" font-size="12">0.5</text>
<text transform="matrix(1 0 0 1 586.5 821)" font-family="'MyriadPro-Regular'" font-size="12">0</text>
<text transform="matrix(-4.371139e-008 -1 1 -4.371139e-008 570.4414 775.6992)" font-family="'MyriadPro-Regular'" font-size="18">Width (μm)</text>
<text transform="matrix(1 0 0 1 591.8335 98)" font-family="'MyriadPro-Regular'" font-size="34">A</text>
<text transform="matrix(1 0 0 1 591.8335 360.0034)" font-family="'MyriadPro-Regular'" font-size="34">B</text>
<text transform="matrix(1 0 0 1 590.8335 616.4844)" font-family="'MyriadPro-Regular'" font-size="34">C</text>
</svg>
